<?xml version="1.0" standalone="no"?><!DOCTYPE svg PUBLIC "-//W3C//DTD SVG 1.1//EN" "http://www.w3.org/Graphics/SVG/1.1/DTD/svg11.dtd"><svg t="1557906121251" class="icon" style="" viewBox="0 0 1024 1024" version="1.1" xmlns="http://www.w3.org/2000/svg" p-id="38621" xmlns:xlink="http://www.w3.org/1999/xlink" width="200" height="200"><defs><style type="text/css"></style></defs><path d="M153.6 837.81632v-3.23072c0 19.7888 13.5936 35.8144 30.38208 35.8144h656.03584c16.78336 0 30.38208-16.0256 30.38208-35.8144v3.23072H153.6z m716.78976-140.68224c0-20.1984-13.60896-36.5568-30.3872-36.5568h-168.61184c-67.75808-42.30144-61.34784-96.37376-61.34784-96.37376-2.62144-29.27616 56.66304-100.98688 56.66304-100.98688 27.45856-32.64 43.88864-74.01472 43.88864-119.0144 0-102.15936-84.61824-185.56416-191.00672-190.60224h-15.13984c-106.40384 5.02272-191.01184 88.44288-191.01184 190.60224-0.0768 43.25376 15.4112 85.23776 43.89888 119.0144 0 0 59.28448 71.71072 56.66304 100.98688 0 0 6.41536 54.0672-61.35296 96.37376H183.98208c-16.78848 0-30.38208 16.3584-30.38208 36.5568v108.09856h716.8l-0.01024-108.09856z m-369.47968-36.5568l11.08992-0.0256 11.08992 0.0256h-22.17984z" fill="" p-id="38622"></path></svg>