<?xml version="1.0" standalone="no"?><!DOCTYPE svg PUBLIC "-//W3C//DTD SVG 1.1//EN" "http://www.w3.org/Graphics/SVG/1.1/DTD/svg11.dtd"><svg t="1557913900051" class="icon" style="" viewBox="0 0 1024 1024" version="1.1" xmlns="http://www.w3.org/2000/svg" p-id="22140" xmlns:xlink="http://www.w3.org/1999/xlink" width="200" height="200"><defs><style type="text/css"></style></defs><path d="M811.757982 1014.968425H236.44664C173.767507 1014.968425 122.829423 964.03034 122.829423 901.351208V180.270242c0-62.679132 50.938084-113.617216 113.617217-113.617217h45.519139v71.530076h-45.519139c-23.301464 0-42.267772 18.966308-42.267772 42.087141V901.351208c0 23.301464 18.966308 42.087141 42.267772 42.087141h575.311342c23.301464 0 42.087141-18.966308 42.087141-42.087141V180.270242c0-23.301464-18.966308-42.087141-42.087141-42.087141h-45.519139V66.653025h45.519139c62.679132 0 113.617216 50.938084 113.617216 113.617217V901.351208c0 62.679132-50.938084 113.617216-113.617216 113.617217z" p-id="22141"></path><path d="M640.158053 195.804551H408.046569c-36.848827 0-66.833657-29.98483-66.833657-66.833657V75.865232c0-36.848827 29.98483-66.833657 66.833657-66.833657h232.111484c36.848827 0 66.833657 29.98483 66.833656 66.833657v53.105662c0 36.848827-29.98483 66.833657-66.833656 66.833657z m-227.595696-71.530076h222.899276V80.38102H412.562357v43.893455zM619.38543 723.429176H428.638561c-22.398307 0-40.461457 18.243782-40.461457 40.461457 0 22.398307 18.243782 40.461457 40.461457 40.461457h190.746869c22.398307 0 40.461457-18.06315 40.461457-40.461457 0.180632-22.398307-18.06315-40.461457-40.461457-40.461457zM687.483507 450.675604c-15.895572-15.895572-41.545246-15.895572-57.260187 0l-65.569236 65.569236V334.348915c0-22.398307-18.243782-40.461457-40.461457-40.461457-22.398307 0-40.461457 18.243782-40.461457 40.461457v181.895925l-65.569237-65.569236c-15.895572-15.895572-41.545246-15.895572-57.260187 0-15.895572 15.895572-15.895572 41.545246 0 57.260187l132.944788 132.944788c0.541895 0.722526 1.083789 1.264421 1.806315 1.986946a40.642089 40.642089 0 0 0 28.720409 11.921679c10.476627 0 20.772623-3.973893 28.720409-11.921679 0.541895-0.541895 1.264421-1.264421 1.806315-1.986946l132.944788-132.944788c15.534309-15.714941 15.534309-41.364615-0.361263-57.260187z" p-id="22142"></path></svg>