<?xml version="1.0" standalone="no"?><!DOCTYPE svg PUBLIC "-//W3C//DTD SVG 1.1//EN" "http://www.w3.org/Graphics/SVG/1.1/DTD/svg11.dtd"><svg t="1557905963956" class="icon" style="" viewBox="0 0 1024 1024" version="1.1" xmlns="http://www.w3.org/2000/svg" p-id="37832" xmlns:xlink="http://www.w3.org/1999/xlink" width="200" height="200"><defs><style type="text/css"></style></defs><path d="M896 1024H128a128 128 0 0 1-128-128V128a128 128 0 0 1 128-128h768a128 128 0 0 1 128 128v768a128 128 0 0 1-128 128zM597.12 465.152a237.376 237.376 0 0 0 139.52-212.416 24.32 24.32 0 0 0-24.32-25.6H316.16a23.936 23.936 0 0 0-24.32 25.6 228.48 228.48 0 0 0 139.52 212.416 49.152 49.152 0 0 1 0 89.6 223.488 223.488 0 0 0-139.52 212.416 24.32 24.32 0 0 0 24.32 25.6h396.16a24.32 24.32 0 0 0 24.32-25.6 222.656 222.656 0 0 0-139.52-212.416 48.128 48.128 0 0 1 0-89.664z" p-id="37833"></path></svg>