<?xml version="1.0" standalone="no"?><!DOCTYPE svg PUBLIC "-//W3C//DTD SVG 1.1//EN" "http://www.w3.org/Graphics/SVG/1.1/DTD/svg11.dtd"><svg t="1557902778971" class="icon" style="" viewBox="0 0 1024 1024" version="1.1" xmlns="http://www.w3.org/2000/svg" p-id="20393" xmlns:xlink="http://www.w3.org/1999/xlink" width="200" height="200"><defs><style type="text/css"></style></defs><path d="M269 704H115c-28.2 0-51 22.8-51 51v154c0 28.2 22.8 51 51 51h154c28.2 0 51-22.8 51-51V755c0-28.2-22.8-51-51-51z m640 0H755c-28.2 0-51 22.8-51 51v154c0 28.2 22.8 51 51 51h154c28.2 0 51-22.8 51-51V755c0-28.2-22.8-51-51-51z m-320 0H435c-28.2 0-51 22.8-51 51v154c0 28.2 22.8 51 51 51h154c28.2 0 51-22.8 51-51V755c0-28.2-22.8-51-51-51zM393.5 448h237c40.6 0 73.5-32.9 73.5-73.5v-237c0-40.6-32.9-73.5-73.5-73.5h-237c-40.6 0-73.5 32.9-73.5 73.5v237c0 40.6 32.9 73.5 73.5 73.5z m377.9 64H544v-32h-64v32H252.6c-51.9 0-92.6 34.5-92.6 78.5V672h64v-81.5c0-5.1 10.8-14.5 28.6-14.5H480v96h64v-96h227.4c17.7 0 28.6 9.4 28.6 14.5V672h64v-81.5c0-44-40.7-78.5-92.6-78.5z" p-id="20394"></path></svg>