<?xml version="1.0" standalone="no"?><!DOCTYPE svg PUBLIC "-//W3C//DTD SVG 1.1//EN" "http://www.w3.org/Graphics/SVG/1.1/DTD/svg11.dtd"><svg t="1557907210263" class="icon" style="" viewBox="0 0 1024 1024" version="1.1" xmlns="http://www.w3.org/2000/svg" p-id="53027" xmlns:xlink="http://www.w3.org/1999/xlink" width="200" height="200"><defs><style type="text/css"></style></defs><path d="M976.4838 808.477388l-0.521886-1.172709-133.222187-239.422951c-7.699356-13.84431-25.165146-18.816554-39.009456-11.117199-13.84431 7.699356-18.819624 25.168216-11.117199 39.009456l131.919519 237.090836c5.248537 12.314467 4.048199 18.700921 3.105734 20.150946-0.500397 0.773619-2.275833 1.312902-4.317329 1.312902L525.031804 854.328669l45.865607-53.750181c10.280134-12.048407 8.848529-30.153764-3.203972-40.437991-12.045337-10.280134-30.150694-8.848529-40.437991 3.203972L447.717951 856.558453c-10.283204 12.048407-8.849552 30.153764 3.199878 40.437991l93.215008 79.538521c5.398964 4.607948 12.016685 6.862291 18.602683 6.862291 8.105608 0 16.159028-3.417843 21.835308-10.066263 10.280134-12.048407 8.848529-30.153764-3.203972-40.437991l-24.841781-21.197788 366.796944 0c21.666462 0 41.263799-10.252505 52.419883-27.423583C983.377814 872.52203 993.630319 847.048869 976.4838 808.477388z" p-id="53028"></path><path d="M690.147376 411.626965l-38.440497-14.415314c-14.811334-5.566786-31.362288 1.950422-36.926004 16.785292-5.563716 14.8318 1.950422 31.365358 16.786315 36.926004l114.734114 43.024909c3.315512 1.246387 6.719028 1.834788 10.066263 1.834788 11.610432 0 22.542412-7.104815 26.859741-18.62008l43.024909-114.734114c5.563716-14.8318-1.950422-31.365358-16.785292-36.926004-14.814404-5.566786-31.362288 1.950422-36.926004 16.786315l-22.275329 59.401902L565.900607 70.351278C555.029002 49.039903 537.539676 36.839023 517.812379 36.839023c-0.021489 0-0.045025 0-0.066515 0-20.756743 0.029676-39.292911 13.223163-50.957579 36.232203l-108.869546 193.524598c-7.765871 13.806447-2.869351 31.295773 10.937097 39.061644 13.806447 7.764847 31.295773 2.87242 39.063691-10.93505l109.186771-194.087417L690.147376 411.626965z" p-id="53029"></path><path d="M334.515726 401.87588c-2.167363-7.617491-7.215332-13.636578-13.628392-17.207917-6.414083-3.573385-14.19121-4.700045-21.811772-2.529613L181.218318 415.671071c-15.236006 4.334725-24.074302 20.200064-19.739577 35.438117 3.588735 12.612249 15.078417 20.840654 27.575032 20.840654 2.598174 0 5.241374-0.357134 7.864108-1.103124l54.875818-15.613606L48.665373 816.309774l-0.929162 3.322675c-7.130398 25.469068-3.713578 49.177026 9.622148 66.76152 12.195763 16.078187 31.502481 25.301246 52.967352 25.301246l215.791741 0c15.841803 0 28.683273-12.843516 28.683273-28.683273 0-15.84078-12.841469-28.683273-28.683273-28.683273L110.324688 854.328669c-1.589195 0-5.479805-0.251733-7.260357-2.601244-1.479701-1.950422-2.354628-6.487761-0.825808-13.644765l197.073424-350.308411 13.560854 47.660486c3.586688 12.612249 15.078417 20.840654 27.574009 20.840654 2.598174 0 5.239328-0.357134 7.864108-1.103124 15.236006-4.334725 24.074302-20.200064 19.739577-35.438117L334.515726 401.87588z" p-id="53030"></path></svg>