<?xml version="1.0" standalone="no"?><!DOCTYPE svg PUBLIC "-//W3C//DTD SVG 1.1//EN" "http://www.w3.org/Graphics/SVG/1.1/DTD/svg11.dtd"><svg t="1557906947216" class="icon" style="" viewBox="0 0 1024 1024" version="1.1" xmlns="http://www.w3.org/2000/svg" p-id="46943" xmlns:xlink="http://www.w3.org/1999/xlink" width="200" height="200"><defs><style type="text/css"></style></defs><path d="M788.598 135.262H235.402c-55.069 0-100.127 43.89-100.127 97.537V791.2c0 53.647 45.057 97.539 100.127 97.539h553.197c55.069 0 100.127-43.892 100.127-97.539V232.799c-0.001-53.647-45.058-97.537-100.128-97.537zM292.651 256.766c2.406-2.284 5.75-3.6 9.27-3.6l421.82 0.019c5.828 0 8.528 1.914 10.25 3.581 3.52 3.449 5.161 7.085 5.161 11.42 0 1.222 0 4.935-5.182 10.014-2.383 2.275-5.691 3.588-9.19 3.588H301.862c-3.499 0-6.805-1.314-9.308-3.697-5.044-4.931-5.044-8.674-5.044-9.906 0.001-4.36 1.642-7.991 5.141-11.419z m-0.819 143.383l0.859-0.697 0.704-0.829c2.541-2.962 5.378-4.217 9.527-4.217h302.195c4.146 0 6.981 1.255 9.503 4.201l0.725 0.845 0.878 0.704c3.054 2.479 4.344 5.251 4.344 9.263 0 4.008-1.29 6.769-4.344 9.237l-0.878 0.716-0.744 0.855c-2.503 2.946-5.319 4.201-9.444 4.201l-302.864 0.009c-3.402 0.009-6.626-1.49-8.761-4.076l-0.761-0.932-0.939-0.761c-3.03-2.458-4.321-5.23-4.321-9.249 0-4.022 1.29-6.793 4.321-9.27z m0.741 171.776c-3.421-3.334-5.062-6.965-5.062-11.326 0-4.022 1.29-6.772 4.299-9.211l0.961-0.772 0.761-0.942c2.138-2.595 5.368-4.102 8.783-4.097l190.063 0.009c1.253 0 5.065 0 10.247 5.039 1.603 1.554 3.678 4.229 3.678 9.974 0 4.808-1.408 8.686-4.422 12.211-1.719 1.304-5.59 2.762-9.6 2.79l-190.418 0.019c-3.5 0.001-6.806-1.304-9.29-3.694z m313.086 246.882c-2.298 2.251-5.689 5.053-10.205 8.323-4.5 3.339-9.141 6.171-12.776 7.831-3.758 2.442-9.753 5.121-18.851 8.453l-25.196 9.181c-10.803 3.158-19.244 5.211-25.034 6.113-7.888 1.919-13.308 3.351-16.266 4.302l-1.439 0.469h-6.12c-10.636 0-16.035-4.712-18.625-8.564-3.449-4.989-4.453-12.001-3.162-20.134 0-2.818 0.577-7.742 4.971-20.546l13.739-46.06c2.463-9.793 4.045-13.871 5.771-16.284 1.888-3.619 3.942-7.16 6.324-10.702 2.176-3.12 5.38-7.302 10.29-13.183l200.571-201.588 93.11 94.172-197.102 198.217z m254.213-260.451c-1.436 4.73-4.005 9.48-8.542 15.072l-15.957 14.135a26.233 26.233 0 0 1-8.768 8.013l-6.346 3.558-91.652-90.967 30.188-29.369a47.414 47.414 0 0 1 17.064-9.294c4.005-1.302 8.648-1.959 13.739-1.959H792l0.843 0.148c4.599 0.829 9.141 1.938 13.595 3.322l10.452 3.49c7.372 3.591 14.869 9.684 23.143 18.966a165.77 165.77 0 0 1 17.949 27.054c1.356 2.611 2.566 6.082 3.819 10.963 1.253 4.881 1.851 9.032 1.851 12.684-0.001 5.211-1.275 9.972-3.78 14.184z" p-id="46944"></path></svg>