<?xml version="1.0" standalone="no"?><!DOCTYPE svg PUBLIC "-//W3C//DTD SVG 1.1//EN" "http://www.w3.org/Graphics/SVG/1.1/DTD/svg11.dtd"><svg t="1557914768978" class="icon" style="" viewBox="0 0 1032 1024" version="1.1" xmlns="http://www.w3.org/2000/svg" p-id="70112" xmlns:xlink="http://www.w3.org/1999/xlink" width="201.5625" height="200"><defs><style type="text/css"></style></defs><path d="M311.63471 232.822143l397.499318 0c15.785919 0 28.542965-12.778963 28.542965-28.52065 0-15.741687-12.757047-28.52065-28.542965-28.52065l-397.499318 0c-15.763803 0-28.52065 12.778963-28.52065 28.52065S295.870907 232.822143 311.63471 232.822143L311.63471 232.822143zM311.63471 391.344407l283.305938 0c15.763803 0 28.454303-12.778963 28.454303-28.52065 0-15.741687-12.6905-28.498535-28.454303-28.498535L311.63471 334.325222c-15.763803 0-28.52065 12.756847-28.52065 28.498535C283.113861 378.565245 295.870907 391.344407 311.63471 391.344407L311.63471 391.344407zM959.430798 301.824719l-71.478553-41.542888L887.952246 45.536153c0-15.94073-12.911658-28.874504-28.830272-28.874504L161.690797 16.66165c-15.918614 0-28.852388 12.911658-28.852388 28.874504l0 214.767595-71.500868 41.542888L4.340472 330.411717l0 32.964736 0 3.006756 0 615.671753 0 0c0 3.913306 0.795971 7.649685 2.255217 11.032411 0.110579 0.287307 0.287506 0.508465 0.420001 0.818086 0.773855 1.635973 1.702321 3.25003 2.807913 4.775624 4.996583 6.920062 12.911658 11.40818 21.998474 11.739918 0.353654 0 0.685391 0.110579 1.039045 0.110579l955.06821-0.000199c15.763803 0 28.498734-12.779163 28.498734-28.476419l0-614.809435 0-3.006756 0-31.173753L959.430798 301.824719 959.430798 301.824719zM887.952047 326.255137l67.233709 39.066712-67.233709 39.044596L887.952047 326.255137 887.952047 326.255137zM208.341046 73.658918l604.086447 0c14.171862 0 18.5496 4.333307 18.5496 18.461137l0 345.365937-320.581666 186.246944-320.55955-186.246944L189.835877 92.142171C189.857793 77.992226 194.213216 73.658918 208.341046 73.658918L208.341046 73.658918zM132.838409 404.344529 65.604701 365.299733l67.233709-39.066712L132.838409 404.344529 132.838409 404.344529zM959.430798 953.467766 61.359856 953.467766 61.359856 428.797062l434.686782 252.485839c0.398085 0.331538 0.884434 0.442117 1.326551 0.64116 0.64116 0.353853 1.260204 0.574812 1.901363 0.862318 1.061161 0.464233 2.122522 0.862318 3.205799 1.215972 0.707507 0.176927 1.392899 0.287506 2.122522 0.464233 1.039045 0.220959 2.07829 0.397886 3.161567 0.486349 0.884434 0.044232 1.768668 0.044232 2.653102 0.044232 0.884235 0 1.768668 0 2.653102-0.044232 1.061161-0.110579 2.100406-0.287506 3.161567-0.486349 0.707507-0.199042 1.415014-0.309622 2.122522-0.464233 1.083476-0.353654 2.144638-0.751739 3.227915-1.215972 0.64116-0.287506 1.260204-0.508465 1.901363-0.862318 0.442117-0.221158 0.90655-0.331737 1.326551-0.64116l434.664666-252.485839 0 524.670703L959.430798 953.467766z" p-id="70113"></path></svg>