<?xml version="1.0" standalone="no"?><!DOCTYPE svg PUBLIC "-//W3C//DTD SVG 1.1//EN" "http://www.w3.org/Graphics/SVG/1.1/DTD/svg11.dtd"><svg t="1557907616552" class="icon" style="" viewBox="0 0 1024 1024" version="1.1" xmlns="http://www.w3.org/2000/svg" p-id="56936" xmlns:xlink="http://www.w3.org/1999/xlink" width="200" height="200"><defs><style type="text/css"></style></defs><path d="M785.92 907.264H238.08a33.28 33.28 0 1 0 0 66.56h547.84a33.28 33.28 0 0 0 0-66.56zM273.92 827.904h476.16V486.4a238.08 238.08 0 0 0-476.16 0z m66.56-341.504a171.52 171.52 0 0 1 343.04 0v274.944h-343.04zM245.76 460.8a33.28 33.28 0 0 0-33.28-33.28h-76.8a33.28 33.28 0 0 0 0 66.56h76.8A33.28 33.28 0 0 0 245.76 460.8zM512 193.536a33.28 33.28 0 0 0 33.28-33.28v-76.8a33.28 33.28 0 0 0-66.56 0v76.8a33.28 33.28 0 0 0 33.28 33.28zM888.32 426.496h-76.8a33.28 33.28 0 1 0 0 66.56h76.8a33.28 33.28 0 1 0 0-66.56zM747.52 271.36l54.272-54.272a33.28 33.28 0 0 0-47.104-47.104l-54.272 54.272a33.28 33.28 0 0 0 47.104 47.104zM275.968 271.872a32.768 32.768 0 0 0 47.104 0 33.792 33.792 0 0 0 0-47.104L268.8 170.496a33.28 33.28 0 0 0-47.104 47.104z" p-id="56937"></path></svg>