<?xml version="1.0" standalone="no"?><!DOCTYPE svg PUBLIC "-//W3C//DTD SVG 1.1//EN" "http://www.w3.org/Graphics/SVG/1.1/DTD/svg11.dtd"><svg t="1557914066493" class="icon" style="" viewBox="0 0 1024 1024" version="1.1" xmlns="http://www.w3.org/2000/svg" p-id="23366" xmlns:xlink="http://www.w3.org/1999/xlink" width="200" height="200"><defs><style type="text/css"></style></defs><path d="M879.167488 674.62656c-7.062528 12.176384-22.1952 28.98432-45.642752 49.92512-25.473024 23.378944-41.110528 40.672256-46.907392 51.871744-5.803008 11.200512-8.580096 29.466624-8.580096 55.284736h-42.612736c0.754688-23.378944 4.789248-43.10528 11.599872-59.183104 7.062528-16.07168 22.188032-35.796992 45.9008-59.175936 23.446528-23.379968 38.32832-39.937024 44.377088-49.681408 6.055936-9.73824 9.07776-21.914624 9.07776-36.770816 0-22.162432-7.561216-39.937024-22.44096-53.576704-14.880768-13.391872-35.30752-20.210688-60.775424-20.210688-54.976512 0-84.984832 31.419392-90.032128 93.999104h-40.090624c0.754688-24.107008 4.035584-43.103232 9.581568-56.736768 5.551104-13.641728 14.879744-26.309632 27.992064-37.506048 13.111296-11.19744 27.739136-19.726336 44.130304-24.843264a158.98112 158.98112 0 0 1 50.18112-8.036352c36.564992 0 66.327552 9.987072 89.5232 29.955072 23.201792 19.969024 34.802688 47.00672 34.802688 80.60928 0.258048 17.045504-3.027968 31.901696-10.084352 44.076032z m-84.21888-223.108096V217.956352c0-45.96224-36.596736-83.221504-81.7408-83.221504H263.635968c-45.14304 0-81.739776 37.259264-81.739776 83.221504v540.926976c0 45.961216 36.596736 83.22048 81.739776 83.22048h295.518208v0.007168h72.411136l-25.247744 47.151104H229.054464c-52.089856 0-94.316544-42.226688-94.316544-94.316544V181.894144c0-52.089856 42.226688-94.317568 94.316544-94.317568h518.735872c52.089856 0 94.31552 42.227712 94.31552 94.317568v267.02336l-1.39264 2.60096h-45.764608zM558.642176 559.166464H229.554176a0.512 0.512 0 0 1-0.512-0.512v-46.143488a0.512 0.512 0 0 1 0.512-0.512h329.088a0.512 0.512 0 0 1 0.512 0.512v46.143488a0.512 0.512 0 0 1-0.512 0.512z m141.471744-282.943488H229.554176a0.512 0.512 0 0 1-0.512-0.512v-46.144512a0.512 0.512 0 0 1 0.512-0.512h470.559744a0.512 0.512 0 0 1 0.512 0.512v46.144512a0.512 0.512 0 0 1-0.512 0.512z m0.512 140.959744a0.512 0.512 0 0 1-0.512 0.512H229.554176a0.512 0.512 0 0 1-0.512-0.512v-46.143488a0.512 0.512 0 0 1 0.512-0.512h470.559744a0.512 0.512 0 0 1 0.512 0.512v46.143488zM229.042176 747.262976v-46.111744a0.512 0.512 0 0 1 0.512-0.512h423.424a0.512 0.512 0 0 1 0.512 0.512v46.111744a0.512 0.512 0 0 1-0.512 0.512h-423.424a0.512 0.512 0 0 1-0.512-0.512z m553.288704 189.155328h-47.4112v-48.703488h47.4112v48.703488z" p-id="23367"></path></svg>