<?xml version="1.0" standalone="no"?><!DOCTYPE svg PUBLIC "-//W3C//DTD SVG 1.1//EN" "http://www.w3.org/Graphics/SVG/1.1/DTD/svg11.dtd"><svg t="1557905618888" class="icon" style="" viewBox="0 0 1160 1024" version="1.1" xmlns="http://www.w3.org/2000/svg" p-id="35168" xmlns:xlink="http://www.w3.org/1999/xlink" width="226.5625" height="200"><defs><style type="text/css"></style></defs><path d="M1029.12 797.013333c32.426667 54.613333-10.24 126.293333-71.68 126.293334H201.386667c-66.56 0-104.106667-71.68-71.68-126.293334C256 578.56 382.293333 363.52 508.586667 145.066667c32.426667-54.613333 114.346667-54.613333 148.48 0C778.24 358.4 902.826667 578.56 1029.12 797.013333zM580.266667 720.213333c-27.306667 0-49.493333 22.186667-49.493334 49.493334 0 22.186667 22.186667 44.373333 49.493334 44.373333 27.306667 0 49.493333-22.186667 49.493333-49.493333-5.12-22.186667-27.306667-44.373333-49.493333-44.373334z m44.373333-339.626666c0-27.306667-22.186667-49.493333-49.493333-49.493334-22.186667 0-44.373333 22.186667-44.373334 49.493334l17.066667 262.826666c5.12 37.546667 59.733333 37.546667 59.733333 0l17.066667-262.826666z" p-id="35169"></path></svg>