<?xml version="1.0" standalone="no"?><!DOCTYPE svg PUBLIC "-//W3C//DTD SVG 1.1//EN" "http://www.w3.org/Graphics/SVG/1.1/DTD/svg11.dtd"><svg t="1557901113221" class="icon" style="" viewBox="0 0 1024 1024" version="1.1" xmlns="http://www.w3.org/2000/svg" p-id="12979" xmlns:xlink="http://www.w3.org/1999/xlink" width="200" height="200"><defs><style type="text/css"></style></defs><path d="M1024 958.045298c0 18.855253-15.27808 34.133333-34.133333 34.133333H34.133333c-18.855253 0-34.133333-15.27808-34.133333-34.133333s15.27808-34.133333 34.133333-34.133334h267.760071v-76.795448H187.71968a34.142436 34.142436 0 0 1-33.191253-42.10688L333.983289 57.981156a34.137884 34.137884 0 0 1 66.382507 0l83.453724 347.413617c-56.984462 51.413902-92.874524 125.792711-92.874524 208.40448a278.846578 278.846578 0 0 0 34.624853 134.913138c1.752178 2.325618 3.231289 4.869689 4.346311 7.604907a282.974436 282.974436 0 0 0 85.856711 90.799218H432.451129v76.795448h172.701013v-108.389262c-84.659769-27.984782-145.94048-107.80672-145.94048-201.728 0-117.1456 95.304818-212.454969 212.454969-212.454969s212.450418 95.304818 212.450418 212.454969c0 93.916729-61.280711 173.743218-145.935929 201.728v108.389262H989.866667a34.133333 34.133333 0 0 1 34.133333 34.133334z" p-id="12980"></path></svg>