<?xml version="1.0" standalone="no"?><!DOCTYPE svg PUBLIC "-//W3C//DTD SVG 1.1//EN" "http://www.w3.org/Graphics/SVG/1.1/DTD/svg11.dtd"><svg t="1557914684554" class="icon" style="" viewBox="0 0 1024 1024" version="1.1" xmlns="http://www.w3.org/2000/svg" p-id="12006" xmlns:xlink="http://www.w3.org/1999/xlink" width="200" height="200"><defs><style type="text/css"></style></defs><path d="M815.823403 64.467249A438.315654 438.315654 0 0 1 585.955456 33.391916c-44.055359-20.269302-175.134438-63.941014-274.946362 0.383646a450.464447 450.464447 0 0 0-195.659504 329.871693c100.707098-255.764058 225.711781-228.333362 319.001721-215.353336 16.113136 2.365818 30.563805 4.220107 44.183241 5.69075h-1.598525c-187.347172-6.394101-223.473845 44.311123-250.520895 79.158976-19.182304 24.745173-10.230562 31.267156 5.434986 33.37721a1654.729512 1654.729512 0 0 0 189.71299 44.311123 343.043542 343.043542 0 0 0 99.236454 2.301876c160.74771-24.809114 294.832017-248.666605 294.832018-248.666605zM0 484.176068a459.671953 459.671953 0 0 1 72.50911 224.369019c1.27882 49.234581 19.885655 188.370228 120.017284 252.055479a432.305198 432.305198 0 0 0 376.676516 35.870909c-270.086845 19.182304-300.01124-107.740609-329.104401-198.856555-4.795576-15.72949-9.591152-29.796513-14.194905-43.032302 0 0.575469 0.383646 0.959115 0.63941 1.470643 76.025866 174.495028 136.450125 185.748647 179.03484 195.40374 30.116218 6.90563 31.970507-4.092225 27.174932-19.182304a1747.571865 1747.571865 0 0 0-43.415949-193.293687 364.016195 364.016195 0 0 0-41.178014-92.01112C256.211645 509.688532 0 484.176068 0 484.176068z m0 0l708.274617 523.16538a450.720211 450.720211 0 0 1 157.103072-173.855619A318.809898 318.809898 0 0 0 1023.056231 603.937588a450.975975 450.975975 0 0 0-152.49932-352.762577c147.831625 231.146767 53.646511 319.705072-10.294503 389.720483-11.189678 12.020911-20.908712 23.018765-29.988336 33.632973a4.987399 4.987399 0 0 0 0.959115-1.342761c112.664067-152.627201 92.778412-211.836581 80.437797-254.421296-8.82386-30.180159-19.182304-26.599462-29.860454-14.706433a1702.173745 1702.173745 0 0 0-144.634575 132.613663 362.737375 362.737375 0 0 0-58.825733 81.460853c-72.892756 148.662859 29.988336 389.208955 29.988336 389.208955z" p-id="12007" fill="#ffffff"></path></svg>