<?xml version="1.0" standalone="no"?><!DOCTYPE svg PUBLIC "-//W3C//DTD SVG 1.1//EN" "http://www.w3.org/Graphics/SVG/1.1/DTD/svg11.dtd"><svg t="1557900667403" class="icon" style="" viewBox="0 0 1092 1024" version="1.1" xmlns="http://www.w3.org/2000/svg" p-id="10250" xmlns:xlink="http://www.w3.org/1999/xlink" width="213.28125" height="200"><defs><style type="text/css"></style></defs><path d="M218.453333 206.165333h544.221867v66.218667H218.453333v-66.218667z m0 205.277867h397.858134v66.9696H218.453333v-66.9696z m0 202.683733h320.170667v69.4272H218.453333V614.126933zM872.925867 0c47.991467 0 82.261333 32.017067 82.261333 70.382933v192.034134c0 19.182933-12.288 29.627733-32.836267 29.627733s-34.338133-10.4448-34.338133-29.627733V70.314667H65.1264v826.709333H393.216c20.548267 0 34.065067 11.0592 34.065067 30.242133s-13.5168 30.583467-34.065067 30.583467H89.088C41.096533 957.917867 0 925.9008 0 887.534933V70.314667C0 32.085333 41.096533 0 89.088 0h783.837867z" p-id="10251"></path><path d="M919.074133 674.679467c101.239467 36.317867 173.192533 125.815467 173.192534 230.468266v25.8048c0 13.653333-12.219733 24.7808-27.306667 24.7808H573.44c-15.086933 0-27.306667-11.0592-27.306667-24.7808v-25.8048c0-103.765333 70.724267-192.7168 170.666667-229.5808-38.5024-27.306667-63.419733-69.632-63.419733-117.213866 0-82.056533 73.5232-148.753067 163.84-148.753067 90.385067 0 163.84 66.696533 163.84 148.753067 0 47.104-24.234667 89.019733-62.0544 116.3264zM707.925333 558.353067c0 54.408533 48.5376 98.577067 108.3392 98.986666L819.2 657.339733h0.273067c59.1872-1.092267 106.973867-44.919467 106.973866-98.986666 0-54.613333-48.9472-99.1232-109.226666-99.1232-60.2112 0-109.226667 44.509867-109.226667 99.191466zM600.746667 906.171733l436.906666-1.024c0-108.885333-97.28-197.563733-217.088-198.2464l-3.2768 0.136534h-1.365333c-118.9888 1.6384-215.176533 89.770667-215.176533 198.109866v1.024z" p-id="10252"></path></svg>