<?xml version="1.0" standalone="no"?><!DOCTYPE svg PUBLIC "-//W3C//DTD SVG 1.1//EN" "http://www.w3.org/Graphics/SVG/1.1/DTD/svg11.dtd"><svg t="1557907427780" class="icon" style="" viewBox="0 0 1024 1024" version="1.1" xmlns="http://www.w3.org/2000/svg" p-id="54862" xmlns:xlink="http://www.w3.org/1999/xlink" width="200" height="200"><defs><style type="text/css"></style></defs><path d="M1018.4 868L542.4 119.2c-10.4-16-31.2-20.8-47.2-10.4-4 2.4-8 6.4-10.4 10.4L8 868c-10.4 16-5.6 36.8 10.4 47.2 5.6 3.2 12 5.6 18.4 5.6h952.8c18.4 0 34.4-15.2 34.4-34.4 0-6.4-1.6-12.8-5.6-18.4z m-919.2-16l414.4-651.2 414.4 651.2H99.2zM496 317.6L210.4 766.4c-6.4 9.6-3.2 22.4 6.4 28 3.2 2.4 7.2 3.2 11.2 3.2H800c11.2 0 20.8-8.8 20.8-20.8 0-4-0.8-8-3.2-11.2l-287.2-448c-6.4-9.6-18.4-12-28-6.4-2.4 1.6-4.8 3.2-6.4 6.4z m51.2 432.8h-68v-68h68v68z m0-306.4V648h-68V444h68z" fill="" p-id="54863"></path></svg>