<?xml version="1.0" standalone="no"?><!DOCTYPE svg PUBLIC "-//W3C//DTD SVG 1.1//EN" "http://www.w3.org/Graphics/SVG/1.1/DTD/svg11.dtd"><svg t="1557913467422" class="icon" style="" viewBox="0 0 1024 1024" version="1.1" xmlns="http://www.w3.org/2000/svg" p-id="1161" xmlns:xlink="http://www.w3.org/1999/xlink" width="200" height="200"><defs><style type="text/css"></style></defs><path d="M512 834.56c-40.96 0-148.48-138.24-174.08-174.08C250.88 537.6 204.8 430.08 204.8 353.28 204.8 189.44 343.04 51.2 512 51.2s307.2 138.24 307.2 302.08c0 71.68-46.08 184.32-133.12 302.08-25.6 35.84-133.12 179.2-174.08 179.2z m0-737.28C368.64 97.28 250.88 215.04 250.88 358.4c0 61.44 46.08 163.84 122.88 276.48 56.32 81.92 117.76 143.36 138.24 153.6 20.48-15.36 81.92-76.8 138.24-153.6 76.8-107.52 122.88-215.04 122.88-276.48 0-148.48-117.76-261.12-261.12-261.12z" p-id="1162" fill="#ffffff"></path><path d="M512 537.6c-97.28 0-179.2-81.92-179.2-179.2S414.72 179.2 512 179.2s179.2 81.92 179.2 179.2-81.92 179.2-179.2 179.2z m0-307.2C440.32 230.4 384 286.72 384 358.4S440.32 486.4 512 486.4s128-56.32 128-128-56.32-128-128-128zM947.2 972.8h-870.4c-10.24 0-15.36-5.12-20.48-10.24-5.12-5.12-5.12-15.36-5.12-25.6l76.8-230.4c5.12-10.24 15.36-15.36 25.6-15.36h102.4c15.36 0 25.6 10.24 25.6 25.6s-10.24 25.6-25.6 25.6H174.08L112.64 921.6h798.72l-61.44-179.2H768c-15.36 0-25.6-10.24-25.6-25.6s10.24-25.6 25.6-25.6h102.4c10.24 0 20.48 5.12 25.6 15.36l76.8 230.4c5.12 10.24 0 15.36-5.12 25.6-5.12 5.12-10.24 10.24-20.48 10.24z" p-id="1163" fill="#ffffff"></path></svg>