<?xml version="1.0" standalone="no"?><!DOCTYPE svg PUBLIC "-//W3C//DTD SVG 1.1//EN" "http://www.w3.org/Graphics/SVG/1.1/DTD/svg11.dtd"><svg t="1557914121194" class="icon" style="" viewBox="0 0 1160 1024" version="1.1" xmlns="http://www.w3.org/2000/svg" p-id="62724" xmlns:xlink="http://www.w3.org/1999/xlink" width="226.5625" height="200"><defs><style type="text/css"></style></defs><path d="M954.135893 0.273067H206.39744C92.5696 0.273067 0 93.02016 0 206.984533V485.512533a26.2144 26.2144 0 1 0 52.4288 0V206.984533c0-85.03296 69.05856-154.2144 153.96864-154.2144h747.779413c84.896427 0 153.954987 69.18144 153.954987 154.2144V485.512533a26.2144 26.2144 0 0 0 52.401493 0V206.984533C1160.533333 93.006507 1067.977387 0.273067 954.135893 0.273067z m-10.990933 730.221226a26.282667 26.282667 0 0 0 1.59744 37.082454 198.628693 198.628693 0 0 1 64.047787 145.85856 26.2144 26.2144 0 1 0 52.442453 0c0-69.932373-29.559467-137.216-81.05984-184.538454a26.2144 26.2144 0 0 0-37.02784 1.59744z m-587.257173-19.456c7.181653-4.396373 12.397227-11.79648 12.834133-20.834986a26.2144 26.2144 0 0 0-24.94464-27.470507 114.879147 114.879147 0 0 1-109.568-114.947413c0-50.95424 34.133333-96.41984 83.012267-110.646614a26.2144 26.2144 0 0 0 17.844906-32.52224 26.200747 26.200747 0 0 0-32.453973-17.885866c-71.133867 20.6848-120.832 86.87616-120.832 161.027413 0 55.7056 27.07456 105.171627 69.044907 135.65952a248.99584 248.99584 0 0 0-151.552 229.94944 26.2144 26.2144 0 1 0 52.4288 0A196.840107 196.840107 0 0 1 342.316373 715.844267c5.188267-0.109227 9.611947-2.102613 13.571414-4.819627z m502.00576-324.266666a26.187093 26.187093 0 0 0-32.494934 17.885866 26.241707 26.241707 0 0 0 17.831254 32.508587c48.892587 14.226773 83.012267 59.706027 83.012266 110.660267a114.879147 114.879147 0 0 1-109.554346 114.93376 26.241707 26.241707 0 0 0 1.2288 52.483413h1.2288a167.3216 167.3216 0 0 0 159.552853-167.417173c0.027307-74.17856-49.657173-140.41088-120.804693-161.068374zM580.266667 305.93024c-115.152213 0-208.786773 93.7984-208.786774 209.114453 0 74.615467 39.348907 140.055893 98.208427 177.07008-119.425707 45.001387-204.8 160.262827-204.8 295.417174 0 14.513493 11.71456 26.241707 26.2144 26.241706 14.472533 0 26.228053-11.75552 26.228053-26.241706 0-145.2032 117.978453-263.3728 262.9632-263.3728 115.152213 0 208.827733-93.812053 208.827734-209.155414-0.027307-115.3024-93.743787-209.073493-208.85504-209.073493z m0 365.745493c-86.248107 0-156.38528-70.260053-156.38528-156.63104 0-86.38464 70.137173-156.603733 156.38528-156.603733 86.248107 0 156.38528 70.260053 156.38528 156.603733 0 86.370987-70.137173 156.63104-156.38528 156.63104z m176.114346 84.650667a26.282667 26.282667 0 0 0 1.59744 37.082453 264.260267 264.260267 0 0 1 85.224107 194.123094c0 14.513493 11.71456 26.241707 26.2144 26.241706 14.472533 0 26.2144-11.75552 26.2144-26.241706a317.0304 317.0304 0 0 0-102.222507-232.81664 26.228053 26.228053 0 0 0-37.02784 1.59744z" p-id="62725"></path></svg>