<?xml version="1.0" standalone="no"?><!DOCTYPE svg PUBLIC "-//W3C//DTD SVG 1.1//EN" "http://www.w3.org/Graphics/SVG/1.1/DTD/svg11.dtd"><svg t="1557907304408" class="icon" style="" viewBox="0 0 1024 1024" version="1.1" xmlns="http://www.w3.org/2000/svg" p-id="53686" xmlns:xlink="http://www.w3.org/1999/xlink" width="200" height="200"><defs><style type="text/css"></style></defs><path d="M172.802 993.829a19.999 19.999 0 0 1-19.997-20.005l0.012-44.84c0.003-10.986 8.866-19.913 19.852-19.994l0.151-0.001c10.917 0 19.83 8.764 19.995 19.697 0.089 5.896 3.546 9.875 6.933 11.204a20 20 0 0 1 4.997 34.387l-19.636 15.32a19.994 19.994 0 0 1-12.307 4.232z" p-id="53687"></path><path d="M851.199 991.829a19.988 19.988 0 0 1-12.203-4.152l-17.453-13.437-310.447-195.589-307.887 196.711a20.001 20.001 0 0 1-18.073 1.765c-19.29-7.568-31.97-26.318-32.317-47.777a30.569 30.569 0 0 1-0.015-0.886V103.46c0-28.673 22.42-52 49.978-52h618.279c27.558 0 49.978 23.327 49.978 52V456.3c0.01 0.253 0.015 0.507 0.015 0.761l0.143 514.762a20 20 0 0 1-19.998 20.006z m-658.394-63.571c0.005 0.185 0.009 0.354 0.01 0.522 0.029 1.9 0.419 3.605 1.05 5.085l306.388-195.753a19.998 19.998 0 0 1 21.429-0.068l309.504 194.995-0.132-475.189a19.84 19.84 0 0 1-0.015-0.772V103.46c0-6.617-4.476-12-9.978-12H202.782c-5.502 0-9.978 5.383-9.978 12v824.798z" p-id="53688"></path><path d="M395.209 610.509a20.003 20.003 0 0 1-19.582-24.085l24.486-117.366-90.855-86.196a20 20 0 0 1 10.551-34.249l117.653-19.157 56.85-107.738a20.001 20.001 0 0 1 17.656-10.666h0.033a19.998 19.998 0 0 1 17.657 10.608l57.336 107.796 117.212 19.158a20 20 0 0 1 10.462 34.32l-90.778 85.222 24.489 118.298a20 20 0 0 1-28.472 21.972l-107.905-53.524-107.908 53.524a19.991 19.991 0 0 1-8.885 2.083z m116.792-97.933c3.044 0 6.087 0.694 8.888 2.083l79.993 39.68-18.433-89.043a20.002 20.002 0 0 1 5.896-18.636l69.36-65.115-86.943-14.211a20 20 0 0 1-14.431-10.346l-44.261-83.213-43.879 83.155a20.001 20.001 0 0 1-14.475 10.406l-87.663 14.274 69.68 66.106a20 20 0 0 1 5.813 18.594l-18.358 87.994 79.923-39.644a20.01 20.01 0 0 1 8.89-2.084z" p-id="53689"></path></svg>