<?xml version="1.0" standalone="no"?><!DOCTYPE svg PUBLIC "-//W3C//DTD SVG 1.1//EN" "http://www.w3.org/Graphics/SVG/1.1/DTD/svg11.dtd"><svg t="1557901821875" class="icon" style="" viewBox="0 0 1024 1024" version="1.1" xmlns="http://www.w3.org/2000/svg" p-id="17933" xmlns:xlink="http://www.w3.org/1999/xlink" width="200" height="200"><defs><style type="text/css"></style></defs><path d="M681.6 320c6.4 0 38.4 0 89.6-35.2 6.4-3.2 208-128 224-140.8 6.4-6.4 0-12.8-9.6-12.8H169.6c-19.2 0-32 12.8-32 32V320h544z" p-id="17934"></path><path d="M681.6 390.4h-544v92.8c0 19.2 12.8 32 32 32H288v35.2c0 32 25.6 57.6 57.6 57.6h3.2v44.8c0 38.4-32 70.4-70.4 70.4H128c0-32-25.6-57.6-57.6-57.6H9.6V832h60.8c32 0 57.6-25.6 57.6-57.6h150.4c67.2 0 121.6-54.4 121.6-121.6V608c28.8-3.2 54.4-25.6 54.4-57.6v-35.2H864c19.2 0 32-12.8 32-32V284.8c-48 32-86.4 57.6-92.8 60.8-60.8 38.4-99.2 44.8-121.6 44.8zM995.2 227.2l-35.2 22.4v182.4h32c19.2 0 32-12.8 32-32V256c0-16-12.8-28.8-28.8-28.8z" p-id="17935"></path></svg>