<?xml version="1.0" standalone="no"?><!DOCTYPE svg PUBLIC "-//W3C//DTD SVG 1.1//EN" "http://www.w3.org/Graphics/SVG/1.1/DTD/svg11.dtd"><svg t="1557914306459" class="icon" style="" viewBox="0 0 1129 1024" version="1.1" xmlns="http://www.w3.org/2000/svg" p-id="3853" xmlns:xlink="http://www.w3.org/1999/xlink" width="220.5078125" height="200"><defs><style type="text/css"></style></defs><path d="M1078.181248 710.789378c-25.168396 0-35.511088 21.814963-35.511088 47.724643v71.551666c0 4.094718-3.212236 7.518749-7.059859 7.518749h-293.619515c-3.882922 0-7.095158-3.424031-7.095158-7.518749v-293.125325c0-3.388732 1.941461-6.142077 5.153697-7.48345l313.598915-120.688281c74.8345-25.874381 91.001576-62.020857 63.256332-143.138631l-65.833181-190.192588C1032.362766 12.710569 994.945516-2.962317 951.703883 0.426415c-15.496389 1.376672-25.168396 3.424031-36.146476 7.51875l-824.626772 317.693632h-0.635387c-65.197793 30.004399-54.219713 68.83362-33.534328 119.946996 1.906162 4.094718 0 8.860122-3.882922 10.236795l-32.93424 15.002199a32.651846 32.651846 0 0 0-18.073238 40.91188l59.37341 172.472343c4.518309 12.919541 15.496389 21.108977 28.380632 21.108977 3.247535 0 7.095158-0.705986 10.342692-2.047359l242.612038-93.366628c1.941461-0.705986 3.882922-0.705986 5.153696 0l82.600345 36.111176c1.941461 0.705986 3.882922 0.705986 5.153696 0l224.574099-87.259851c4.518309-2.047359 9.672006 2.047359 9.672007 7.518749l-1.941462 329.942487c0 4.059419 3.212236 6.812763 7.095158 6.812764h358.74671c3.882922 0 7.130457 3.388732 7.130457 7.48345v65.444888c0 26.580367 10.942781 47.724643 35.475789 47.724643 25.168396 0 39.358711-21.814963 39.358711-47.724643v-216.772955c1.941461-26.580367-12.248854-47.724643-37.41725-48.39533zM94.813558 639.202412L47.689002 505.59459c-1.270775-4.094718 0.635387-8.860122 4.51831-10.236794l40.664785-15.672886h0.635387c4.518309-1.376672 14.825703-7.518749 30.357391-8.189436 1.270775 0 2.541549 0 3.847623 0.705986l151.645761 92.025255c5.789084 3.388732 4.518309 11.578168-1.306074 14.296214l-173.566621 65.444888a7.554049 7.554049 0 0 1-9.672006-4.765405z m1.906161-252.91943c-5.153697-3.388732-4.518309-11.578168 1.306074-14.296214l875.598951-328.601114c1.306074-0.705986 3.247535-0.705986 5.188996-0.705985a14.825703 14.825703 0 0 1 14.190315 10.236794l90.33089 266.580257a16.767164 16.767164 0 0 1-9.036619 20.438291L430.333333 586.677065a7.271654 7.271654 0 0 1-6.459771-0.635387L96.755019 386.282982z" p-id="3854" fill="#ffffff"></path></svg>