<?xml version="1.0" standalone="no"?><!DOCTYPE svg PUBLIC "-//W3C//DTD SVG 1.1//EN" "http://www.w3.org/Graphics/SVG/1.1/DTD/svg11.dtd"><svg t="1557915296056" class="icon" style="" viewBox="0 0 1024 1024" version="1.1" xmlns="http://www.w3.org/2000/svg" p-id="72887" xmlns:xlink="http://www.w3.org/1999/xlink" width="200" height="200"><defs><style type="text/css"></style></defs><path d="M1008.128 510.464c-6.656-10.752-14.848-19.968-25.088-27.136l-550.912-353.28c-0.512-0.512-1.536-0.512-2.048-1.536-1.536-0.512-2.56-1.536-4.096-2.048l-81.92-52.224c-5.12-3.072-10.752-5.12-16.896-5.12H242.688c-10.24 0-20.48 5.12-26.112 14.336l-168.96 254.976v0.512C27.136 371.712 35.84 414.72 68.608 435.712l272.384 174.592-134.656 134.656H70.144v-160.768c0-17.408-14.336-31.232-31.232-31.232s-31.232 14.336-31.232 31.232v338.432c0 17.408 14.336 31.232 31.232 31.232s31.232-14.336 31.232-31.232v-115.712H230.912l0.512-0.512h0.512l0.512-0.512h0.512l0.512-0.512h0.512l0.512-0.512h0.512l0.512-0.512 0.512-0.512 0.512-0.512 0.512-0.512 0.512-0.512 1.536-1.536 154.112-153.6 182.784 117.76c39.936 25.6 90.112 27.136 131.072 4.096l270.336-151.552c38.4-23.552 51.2-70.656 30.72-107.008z m-906.24-128c-3.072-2.048-4.608-6.656-2.56-10.24l159.744-240.128h58.88l49.664 32.256-184.832 270.336-80.896-52.224z m846.848 177.152l-270.336 151.552c-20.48 11.776-46.08 10.752-66.56-2.048L235.52 467.968l185.344-270.336 527.872 338.432c4.096 2.56 6.656 7.168 6.656 12.288-0.512 4.608-3.072 8.704-6.656 11.264z" p-id="72888"></path></svg>