<?xml version="1.0" standalone="no"?><!DOCTYPE svg PUBLIC "-//W3C//DTD SVG 1.1//EN" "http://www.w3.org/Graphics/SVG/1.1/DTD/svg11.dtd"><svg t="1557906317024" class="icon" style="" viewBox="0 0 1024 1024" version="1.1" xmlns="http://www.w3.org/2000/svg" p-id="39622" xmlns:xlink="http://www.w3.org/1999/xlink" width="200" height="200"><defs><style type="text/css"></style></defs><path d="M403.54816 46.93504H111.872c-41.20576 0-74.61376 33.408-74.61376 74.61376v291.67104c0 41.20576 33.408 74.61376 74.61376 74.61376h291.67616c41.20064 0 74.60864-33.408 74.60864-74.61376V121.5488c0-41.20576-33.408-74.61376-74.60864-74.61376z m23.90528 332.73856c0 31.72864-25.72288 57.45664-57.45152 57.45664H145.41312c-31.72864 0-57.45152-25.72288-57.45152-57.45664V155.09504c0-31.73376 25.72288-57.45664 57.45152-57.45664h224.5888c31.72352 0 57.45152 25.72288 57.45152 57.45664v224.57856zM912.13312 46.93504h-291.68128c-41.20576 0-74.60864 33.40288-74.60864 74.61376v291.67104c0 41.20576 33.40288 74.61376 74.60864 74.61376h291.68128c41.20064 0 74.60864-33.408 74.60864-74.61376V121.5488c0.00512-41.21088-33.408-74.61376-74.60864-74.61376z m23.90528 332.73856c0 31.72864-25.72288 57.45664-57.45152 57.45664h-224.5888c-31.72864 0-57.45664-25.72288-57.45664-57.45664V155.09504c0-31.73376 25.72288-57.45664 57.45664-57.45664H878.592c31.72352 0 57.45152 25.71776 57.45152 57.45664v224.57856zM404.9664 548.69504H113.28512c-41.20576 0-74.61376 33.40288-74.61376 74.61376v291.67104c0 41.20576 33.408 74.61376 74.61376 74.61376h291.68128c41.20064 0 74.60864-33.408 74.60864-74.61376V623.3088c0-41.21088-33.408-74.61376-74.60864-74.61376z m23.90528 332.73856c0 31.72864-25.72288 57.45664-57.45152 57.45664H146.83136c-31.72864 0-57.45152-25.72288-57.45152-57.45664v-224.57856c0-31.73376 25.72288-57.45664 57.45152-57.45664h224.5888c31.72352 0 57.45152 25.71776 57.45152 57.45664v224.57856zM913.55136 548.69504h-291.68128c-41.20576 0-74.60864 33.40288-74.60864 74.61376v291.67104c0 41.20576 33.40288 74.61376 74.60864 74.61376h291.68128c41.20064 0 74.60864-33.408 74.60864-74.61376V623.3088c0-41.21088-33.408-74.61376-74.60864-74.61376z m23.90528 332.73856c0 31.72864-25.72288 57.45664-57.45152 57.45664h-224.5888c-31.72864 0-57.45664-25.72288-57.45664-57.45664v-224.57856c0-31.73376 25.72288-57.45664 57.45664-57.45664h224.5888c31.72352 0 57.45152 25.71776 57.45152 57.45664v224.57856z" p-id="39623"></path></svg>