<?xml version="1.0" standalone="no"?><!DOCTYPE svg PUBLIC "-//W3C//DTD SVG 1.1//EN" "http://www.w3.org/Graphics/SVG/1.1/DTD/svg11.dtd"><svg t="1557914988618" class="icon" style="" viewBox="0 0 1026 1024" version="1.1" xmlns="http://www.w3.org/2000/svg" p-id="72110" xmlns:xlink="http://www.w3.org/1999/xlink" width="200.390625" height="200"><defs><style type="text/css"></style></defs><path d="M68.266667 887.466667V136.533333c0-40.96 27.306667-68.266667 68.266666-68.266666h750.933334c40.96 0 68.266667 27.306667 68.266666 68.266666v273.066667h68.266667V136.533333c0-75.093333-61.44-136.533333-136.533333-136.533333H136.533333C61.44 0 0 61.44 0 136.533333v750.933334c0 75.093333 61.44 136.533333 136.533333 136.533333h273.066667v-68.266667H136.533333c-40.96 0-68.266667-27.306667-68.266666-68.266666z m170.666666-614.4c-20.48 0-34.133333 13.653333-34.133333 34.133333s13.653333 34.133333 34.133333 34.133333h546.133334c20.48 0 34.133333-13.653333 34.133333-34.133333s-13.653333-34.133333-34.133333-34.133333h-546.133334z m273.066667 273.066666h-273.066667c-20.48 0-34.133333 13.653333-34.133333 34.133334s13.653333 34.133333 34.133333 34.133333h273.066667c20.48 0 34.133333-13.653333 34.133333-34.133333S532.48 546.133333 512 546.133333z m505.173333 211.626667c-13.653333-13.653333-34.133333-13.653333-47.786666 0L819.2 907.946667V580.266667c0-20.48-13.653333-34.133333-34.133333-34.133334s-34.133333 13.653333-34.133334 34.133334v327.68l-143.36-143.36c-13.653333-13.653333-34.133333-13.653333-47.786666 0-13.653333 13.653333-13.653333 34.133333 0 47.786666l197.973333 197.973334c6.826667 6.826667 6.826667 6.826667 13.653333 6.826666h27.306667c6.826667 0 6.826667-6.826667 13.653333-6.826666l197.973334-197.973334c20.48-13.653333 20.48-40.96 6.826666-54.613333z" fill="" p-id="72111"></path></svg>