<?xml version="1.0" standalone="no"?><!DOCTYPE svg PUBLIC "-//W3C//DTD SVG 1.1//EN" "http://www.w3.org/Graphics/SVG/1.1/DTD/svg11.dtd"><svg t="1557903875010" class="icon" style="" viewBox="0 0 1024 1024" version="1.1" xmlns="http://www.w3.org/2000/svg" p-id="29615" xmlns:xlink="http://www.w3.org/1999/xlink" width="200" height="200"><defs><style type="text/css"></style></defs><path d="M93.956355 401.190488h170.920886a387.238633 387.238633 0 0 1 112.638827-138.793221 399.526505 399.526505 0 0 1 55.33809-35.839627V60.842033A60.586036 60.586036 0 0 0 372.52412 0H93.956355C60.46337 0.127999 33.370319 27.306382 33.412985 60.842033v279.506422a60.799367 60.799367 0 0 0 60.54337 60.842033zM876.7962 280.189081V60.842033A60.7567 60.7567 0 0 0 816.252831 0h-278.354434a60.799367 60.799367 0 0 0-60.543369 60.842033v145.363819a381.180029 381.180029 0 0 1 139.13455-25.6424c97.534984 0 189.182029 35.498297 260.306622 99.625629zM228.52562 523.557213a384.422662 384.422662 0 0 1 18.005145-77.951188H93.956355c-33.492984 0.127999-60.586036 27.306382-60.586036 60.799367v279.549088a60.799367 60.799367 0 0 0 60.543369 60.842033H334.935178a397.563859 397.563859 0 0 1-28.159707-32.895658 391.462589 391.462589 0 0 1-78.249851-290.343642z m751.352173 417.958313l-106.068229-138.451891a49.492818 49.492818 0 0 0 2.94397-17.066489v-14.805179c86.441766-115.070801 89.727065-277.885105-1.962646-397.265195a324.775284 324.775284 0 0 0-397.478527-95.657671 264.103916 264.103916 0 0 0-44.500869 25.6424 151.038427 151.038427 0 0 0-15.103843 10.83722 325.457943 325.457943 0 0 0-78.249852 86.484433 328.359246 328.359246 0 0 0 18.986469 372.604119c16.0425 21.034448 34.644972 40.063583 55.33809 56.57541a325.116613 325.116613 0 0 0 370.641473 24.021083l114.900136 149.630442c16.895824 22.229102 48.639493 26.53839 70.825929 9.5999l0.511995-0.383996a51.071468 51.071468 0 0 0 9.301236-71.636587l-0.085332-0.127999z m-210.131145-168.019583a249.682732 249.682732 0 0 1-292.348954 9.855897 231.762919 231.762919 0 0 1-44.50087-38.143603 252.584036 252.584036 0 0 1-35.327632-293.714273 253.906688 253.906688 0 0 1 66.132644-76.927199 249.554734 249.554734 0 0 1 335.569838 26.623723c13.653191 14.335851 25.429068 30.335684 35.028969 47.700836a252.669368 252.669368 0 0 1-64.553995 324.604619z" p-id="29616"></path></svg>