<?xml version="1.0" standalone="no"?><!DOCTYPE svg PUBLIC "-//W3C//DTD SVG 1.1//EN" "http://www.w3.org/Graphics/SVG/1.1/DTD/svg11.dtd"><svg t="1557914404616" class="icon" style="" viewBox="0 0 1024 1024" version="1.1" xmlns="http://www.w3.org/2000/svg" p-id="66754" xmlns:xlink="http://www.w3.org/1999/xlink" width="200" height="200"><defs><style type="text/css"></style></defs><path d="M832 448V128H128v768h346.628a319.72 319.72 0 0 0 37.348 64H96a32 32 0 0 1-32-32V96a32 32 0 0 1 32-32h768a32 32 0 0 1 32 32v352h-64zM512 320h256v64H512v-64z m-320 46.04l43.876-45.252 50.912 50.912 115.964-115.968 45.256 45.256L309.416 439.58a32 32 0 0 1-45.256 0L192 366.04z m0 256.268l43.876-45.256 50.912 50.912L402.752 512l45.256 45.256-138.592 138.592a32 32 0 0 1-45.256 0L192 622.308zM832.76 704H703.24a32 32 0 0 1 0.76 6.94V960h128V710.94a32 32 0 0 1 0.76-6.94z m37.324-64l39.384-64H626.532l39.384 64h204.168z m-230.08 352V729.056a32 32 0 0 0-4.748-16.772l-108.248-175.9A16 16 0 0 1 540.636 512h454.732a16 16 0 0 1 13.628 24.384l-108.248 175.9A32 32 0 0 0 896 729.056V992a32 32 0 0 1-32 32H672a32 32 0 0 1-32-32z" p-id="66755"></path></svg>