<?xml version="1.0" standalone="no"?><!DOCTYPE svg PUBLIC "-//W3C//DTD SVG 1.1//EN" "http://www.w3.org/Graphics/SVG/1.1/DTD/svg11.dtd"><svg t="1557915058878" class="icon" style="" viewBox="0 0 1024 1024" version="1.1" xmlns="http://www.w3.org/2000/svg" p-id="26637" xmlns:xlink="http://www.w3.org/1999/xlink" width="200" height="200"><defs><style type="text/css"></style></defs><path d="M910.848 835.84H104.96c-29.0816 0-53.3504-24.7296-53.3504-54.4256V157.4912c0-29.696 24.2688-54.4768 53.4016-54.4768H910.848c29.1328 0 53.4016 24.7808 53.4016 54.4768v623.9232c0 29.696-24.2688 54.4256-53.4016 54.4256z m-801.024-59.392h796.16V162.4576H109.824v613.9904z" p-id="26638"></path><path d="M653.4144 400.6912a7.936 7.936 0 0 0-7.168-4.4544H552.448l92.5696-142.6944a7.5776 7.5776 0 0 0 0.2048-7.8848 7.936 7.936 0 0 0-6.912-3.9936H511.6928a7.936 7.936 0 0 0-7.0656 4.2496l-118.7328 231.936a7.5776 7.5776 0 0 0 0.3584 7.4752 7.9872 7.9872 0 0 0 6.7072 3.6864h81.408l-88.6784 205.6704a7.68 7.68 0 0 0 3.1744 9.5744 8.0384 8.0384 0 0 0 10.1888-1.5872l253.2352-293.7344a7.5776 7.5776 0 0 0 1.1264-8.192z" p-id="26639"></path><path d="M364.6976 905.216h286.4128v59.392H364.6976z" p-id="26640"></path></svg>