<?xml version="1.0" standalone="no"?><!DOCTYPE svg PUBLIC "-//W3C//DTD SVG 1.1//EN" "http://www.w3.org/Graphics/SVG/1.1/DTD/svg11.dtd"><svg t="1557906635134" class="icon" style="" viewBox="0 0 1024 1024" version="1.1" xmlns="http://www.w3.org/2000/svg" p-id="41290" xmlns:xlink="http://www.w3.org/1999/xlink" width="200" height="200"><defs><style type="text/css"></style></defs><path d="M568.783773 370.676297l169.58742 0 0-56.529481L568.783773 314.146816 568.783773 370.676297zM286.138414 257.618359l452.232778 0 0-56.528458L286.138414 201.089901 286.138414 257.618359zM907.957589 439.328887 907.957589 201.089901c0-62.436004-50.621934-113.057939-113.058962-113.057939L229.60791 88.031962c-62.437028 0-113.057939 50.622958-113.057939 113.057939l0 140.054803c-34.455743 24.979928-56.783261 64.979944-56.783261 110.073978l0 347.704097c0 75.685773 62.930261 137.046283 140.551106 137.046283l623.364367 0c77.619822 0 140.551106-61.36051 140.551106-137.046283L964.23329 554.008766C964.231243 500.130671 946.278359 458.730773 907.957589 439.328887zM851.428108 427.209872c-0.085958 0-0.169869-0.002047-0.255827-0.002047L511.998465 427.207825c5.51869-62.574151-47.638997-113.059985-113.057939-113.059985l-198.623733 0c-9.31925 0-18.424628 0.893346-27.237341 2.580778L173.079452 201.089901c0-31.216979 25.28385-56.529481 56.528458-56.529481l565.290717 0c31.18935 0 56.529481 25.311479 56.529481 56.529481L851.428108 427.209872z" p-id="41291"></path></svg>