<?xml version="1.0" standalone="no"?><!DOCTYPE svg PUBLIC "-//W3C//DTD SVG 1.1//EN" "http://www.w3.org/Graphics/SVG/1.1/DTD/svg11.dtd"><svg t="1557900364582" class="icon" style="" viewBox="0 0 1024 1024" version="1.1" xmlns="http://www.w3.org/2000/svg" p-id="9233" xmlns:xlink="http://www.w3.org/1999/xlink" width="200" height="200"><defs><style type="text/css"></style></defs><path d="M1023 831.6V768h-56.6c-4.4-24.4-14.2-47.4-28.6-67.6l39.4-40.8-38.2-38.8-40.2 40.8c-20-14.2-42.8-23.4-66.8-27.4v-57.4h-63.8v56.6c-24.4 4.4-47.4 14.2-67.6 28.6l-40.8-39.4-38.8 38.2 40.8 40.2c-14.2 20-23.4 42.8-27.4 66.8h-57.4v63.8h56.6c4.4 24.4 14.2 47.4 28.6 67.6L623 940l38.2 38.8 40.2-40.8c20 14.2 42.8 23.4 66.8 27.4v57.4H832V966c24.4-4.4 47.4-14.2 67.6-28.6l40.8 39.4 38.8-38.2-40.8-40.2c14.2-20 23.4-42.8 27.4-66.8h57.2zM800 883.2c-46 0-83.4-37.4-83.4-83.4 0-46 37.4-83.4 83.4-83.4 46 0 83.4 37.4 83.4 83.4 0 22.2-8.8 43.4-24.4 59s-36.8 24.4-59 24.4z" p-id="9234"></path><path d="M513.4 3.4c-131.6 0-238.2 106.6-238.2 238.2s106.6 238.2 238.2 238.2 238.2-106.6 238.2-238.2c0-131.4-106.6-238.2-238.2-238.2zM3.8 989.6v33.2h590c-63.4-77-91-177.6-75.8-276.2 15.2-98.6 71.8-186.2 155.4-240.6-155.2-51.4-325.8-25-458.2 70.8C82.4 672.6 3.8 826.2 3.8 989.6z" p-id="9235"></path></svg>