<?xml version="1.0" standalone="no"?><!DOCTYPE svg PUBLIC "-//W3C//DTD SVG 1.1//EN" "http://www.w3.org/Graphics/SVG/1.1/DTD/svg11.dtd"><svg t="1557913560814" class="icon" style="" viewBox="0 0 1024 1024" version="1.1" xmlns="http://www.w3.org/2000/svg" p-id="1312" xmlns:xlink="http://www.w3.org/1999/xlink" width="200" height="200"><defs><style type="text/css"></style></defs><path d="M768 1024H0V153.6c0-56.32 46.08-102.4 102.4-102.4h563.2c56.32 0 102.4 46.08 102.4 102.4v870.4zM51.2 972.8h665.6V153.6c0-30.72-20.48-51.2-51.2-51.2H102.4c-30.72 0-51.2 20.48-51.2 51.2v819.2z" p-id="1313" fill="#ffffff"></path><path d="M972.8 1024h-256V307.2h153.6c56.32 0 102.4 46.08 102.4 102.4v614.4z m-204.8-51.2h153.6V409.6c0-30.72-20.48-51.2-51.2-51.2h-102.4v614.4zM486.4 1024h-204.8c-40.96 0-76.8-35.84-76.8-76.8v-204.8c0-40.96 35.84-76.8 76.8-76.8h204.8c40.96 0 76.8 35.84 76.8 76.8v204.8c0 40.96-35.84 76.8-76.8 76.8z m-204.8-307.2c-15.36 0-25.6 10.24-25.6 25.6v204.8c0 15.36 10.24 25.6 25.6 25.6h204.8c15.36 0 25.6-10.24 25.6-25.6v-204.8c0-15.36-10.24-25.6-25.6-25.6h-204.8z" p-id="1314" fill="#ffffff"></path></svg>