<?xml version="1.0" standalone="no"?><!DOCTYPE svg PUBLIC "-//W3C//DTD SVG 1.1//EN" "http://www.w3.org/Graphics/SVG/1.1/DTD/svg11.dtd"><svg t="1557904191218" class="icon" style="" viewBox="0 0 1024 1024" version="1.1" xmlns="http://www.w3.org/2000/svg" p-id="32021" xmlns:xlink="http://www.w3.org/1999/xlink" width="200" height="200"><defs><style type="text/css"></style></defs><path d="M870.4 1024H153.6a102.4 102.4 0 0 1-102.4-102.4V102.4a102.4 102.4 0 0 1 102.4-102.4h716.8a102.4 102.4 0 0 1 102.4 102.4v819.2a102.4 102.4 0 0 1-102.4 102.4zM230.4 716.8h409.6a25.6 25.6 0 0 0 0-51.2h-409.6a25.6 25.6 0 0 0 0 51.2zM409.6 204.8a51.2 51.2 0 0 0-51.2-51.2H256a51.2 51.2 0 0 0-51.2 51.2v102.4a51.2 51.2 0 0 0 51.2 51.2h102.4a51.2 51.2 0 0 0 51.2-51.2V204.8z m384 307.2h-563.2a25.6 25.6 0 0 0 0 51.2h563.2a25.6 25.6 0 0 0 0-51.2z" p-id="32022"></path></svg>