<?xml version="1.0" standalone="no"?><!DOCTYPE svg PUBLIC "-//W3C//DTD SVG 1.1//EN" "http://www.w3.org/Graphics/SVG/1.1/DTD/svg11.dtd"><svg t="1557913462959" class="icon" style="" viewBox="0 0 1024 1024" version="1.1" xmlns="http://www.w3.org/2000/svg" p-id="58819" xmlns:xlink="http://www.w3.org/1999/xlink" width="200" height="200"><defs><style type="text/css"></style></defs><path d="M725.333 277.333H393.387A23.467 23.467 0 0 0 369.92 300.8a23.467 23.467 0 0 0 23.467 23.467h331.946a23.467 23.467 0 1 0 0-46.934z m-426.666 0a23.893 23.893 0 0 0-23.894 23.467 23.893 23.893 0 0 0 23.894 23.467 23.467 23.467 0 0 0 23.466-23.467 23.467 23.467 0 0 0-23.466-23.467z m426.666 140.8H393.387A23.467 23.467 0 0 0 369.92 441.6a23.467 23.467 0 0 0 23.467 23.467h331.946a23.467 23.467 0 0 0 0-46.934z m-426.666 0a23.893 23.893 0 0 0-23.894 23.467 23.893 23.893 0 0 0 23.894 23.467 23.467 23.467 0 0 0 23.466-23.467 23.467 23.467 0 0 0-23.466-23.467z m426.666 140.8H393.387A23.467 23.467 0 0 0 369.92 582.4a23.467 23.467 0 0 0 23.467 23.467h331.946a23.467 23.467 0 0 0 0-46.934z m-426.666 0a23.893 23.893 0 0 0-23.894 23.467 23.893 23.893 0 0 0 23.894 23.467 23.467 23.467 0 0 0 23.466-23.467 23.467 23.467 0 0 0-23.466-23.467z m426.666 140.8H393.387A23.467 23.467 0 0 0 369.92 723.2a23.467 23.467 0 0 0 23.467 23.467h331.946a23.467 23.467 0 0 0 0-46.934z m-426.666 0a23.893 23.893 0 0 0-23.894 23.467 23.893 23.893 0 0 0 23.894 23.467 23.467 23.467 0 0 0 23.466-21.334 23.467 23.467 0 0 0-23.466-25.6zM820.053 42.667H203.947A118.187 118.187 0 0 0 85.333 160v704a118.187 118.187 0 0 0 118.614 117.333h616.106A118.187 118.187 0 0 0 938.667 864V160A118.187 118.187 0 0 0 820.053 42.667z m-675.84 810.666V170.667a68.693 68.693 0 0 1 69.12-69.547h597.334a68.693 68.693 0 0 1 69.12 69.547v682.666a69.12 69.12 0 0 1-69.12 69.547H213.333a68.693 68.693 0 0 1-69.12-69.547z" p-id="58820"></path></svg>