<?xml version="1.0" standalone="no"?><!DOCTYPE svg PUBLIC "-//W3C//DTD SVG 1.1//EN" "http://www.w3.org/Graphics/SVG/1.1/DTD/svg11.dtd"><svg t="1557907729142" class="icon" style="" viewBox="0 0 1433 1024" version="1.1" xmlns="http://www.w3.org/2000/svg" p-id="57154" xmlns:xlink="http://www.w3.org/1999/xlink" width="279.8828125" height="200"><defs><style type="text/css"></style></defs><path d="M68.266667 0h1297.066666a68.266667 68.266667 0 0 1 68.266667 68.266667v887.466666a68.266667 68.266667 0 0 1-68.266667 68.266667H68.266667a68.266667 68.266667 0 0 1-68.266667-68.266667V68.266667a68.266667 68.266667 0 0 1 68.266667-68.266667z m699.733333 170.666667v76.1856h256V170.666667H768z m0 196.266666v76.1856h375.466667V366.933333H768zM768 580.266667v76.1856h512V580.266667H768zM153.6 768v59.118933h1126.4V768H153.6z m535.6544-200.465067l-200.874667-347.904c-24.576-42.530133-64.7168-42.530133-89.2928 0l-200.874666 347.904c-24.558933 42.564267-4.4544 77.312 44.629333 77.312h401.783467c49.1008 0 69.1712-34.747733 44.629333-77.312z m-273.1008-249.173333c7.2192-7.816533 16.384-11.7248 27.579733-11.7248 11.195733 0 20.3776 3.857067 27.5968 11.554133 7.168 7.697067 10.752 17.339733 10.752 28.928 0 9.984-14.967467 83.3024-19.968 136.6528h-36.096c-4.386133-53.3504-20.650667-126.6688-20.650666-136.6528 0-11.400533 3.601067-20.992 10.786133-28.7744z m54.664533 253.6448c-7.594667 7.389867-16.622933 11.076267-27.0848 11.076267a37.495467 37.495467 0 0 1-27.0848-11.093334 36.010667 36.010667 0 0 1-11.332266-26.794666c0-10.4448 3.754667-19.473067 11.332266-27.050667A37.051733 37.051733 0 0 1 443.733333 506.794667a37.034667 37.034667 0 0 1 27.0848 11.349333c7.5776 7.5776 11.349333 16.605867 11.349334 27.050667 0 10.496-3.771733 19.421867-11.349334 26.794666z" p-id="57155"></path></svg>