<?xml version="1.0" standalone="no"?><!DOCTYPE svg PUBLIC "-//W3C//DTD SVG 1.1//EN" "http://www.w3.org/Graphics/SVG/1.1/DTD/svg11.dtd"><svg t="1557914936694" class="icon" style="" viewBox="0 0 1025 1024" version="1.1" xmlns="http://www.w3.org/2000/svg" p-id="26514" xmlns:xlink="http://www.w3.org/1999/xlink" width="200.1953125" height="200"><defs><style type="text/css"></style></defs><path d="M611.68 302.624c0-17.856-14.464-34.656-32.32-34.656H191.392c-17.888 0-32.32 16.832-32.32 34.656 0 17.856 14.464 34.688 32.32 34.688h387.968c17.856 0 32.32-16.832 32.32-34.688zM191.392 469.696c-17.888 0-32.32 17.344-32.32 35.2 0 17.888 14.464 35.232 32.32 35.232h258.656c17.856 0 32.352-17.344 32.352-35.232 0-17.856-14.496-35.2-32.352-35.2H191.392zM385.376 673.6H191.392c-17.888 0-32.32 17.344-32.32 35.2 0 17.888 14.464 35.264 32.32 35.264h193.984c17.888 0 32.352-17.376 32.352-35.264 0-17.856-14.464-35.2-32.352-35.2z" p-id="26515"></path><path d="M332.16 886.592H123.648c-32.544 0-58.976-25.216-58.976-56.32v-663.2c0-31.072 26.464-56.384 58.976-56.384h593.376c32.416 0 58.912 25.312 58.912 56.384V304.64a32.32 32.32 0 1 0 64.672 0.064V167.072c0-66.72-55.392-121.024-123.552-121.024H123.648C55.456 46.048 0 100.32 0 167.072v663.136c0 66.752 55.456 121.088 123.648 121.088h208.512a32.32 32.32 0 1 0 0-64.704zM743.392 782.976h-34.88a8.96 8.96 0 0 0-7.072 3.68 13.664 13.664 0 0 0-3.008 8.832v20.8c0 3.2 0.992 6.336 3.008 8.8 1.92 2.4 4.512 3.616 7.072 3.616h34.88c2.56 0 5.152-1.216 7.104-3.616a13.856 13.856 0 0 0 2.976-8.8v-20.8a13.6 13.6 0 0 0-2.976-8.832 9.088 9.088 0 0 0-7.104-3.68z m-41.728-35.232c1.92 1.664 4.512 2.464 7.072 2.464l34.624 0.16a11.04 11.04 0 0 0 7.168-2.432 7.616 7.616 0 0 0 2.976-5.92l-0.064-59.648v-91.68a7.456 7.456 0 0 0-2.944-5.856 10.656 10.656 0 0 0-7.136-2.464H708.512a10.624 10.624 0 0 0-7.104 2.464 7.36 7.36 0 0 0-2.976 5.856v92.384l0.288 58.848c0.032 2.144 0.96 4.256 2.944 5.824z" p-id="26516"></path><path d="M1015.744 810.24L793.088 424.48c-27.104-47.168-103.136-47.168-130.272 0L440.064 810.24h-0.064a74.624 74.624 0 0 0 0.064 75.232 74.56 74.56 0 0 0 65.184 37.664h445.312c27.264 0 51.68-14.112 65.216-37.696a74.336 74.336 0 0 0-0.032-75.2z m-55.936 42.88a10.24 10.24 0 0 1-9.248 5.312H505.248a10.208 10.208 0 0 1-9.152-5.312 10.112 10.112 0 0 1 0-10.56l222.624-385.728c5.44-9.248 13.024-9.248 18.432 0L959.808 842.56a10.24 10.24 0 0 1 0 10.56z" p-id="26517"></path></svg>