<?xml version="1.0" standalone="no"?><!DOCTYPE svg PUBLIC "-//W3C//DTD SVG 1.1//EN" "http://www.w3.org/Graphics/SVG/1.1/DTD/svg11.dtd"><svg t="1557900927945" class="icon" style="" viewBox="0 0 1024 1024" version="1.1" xmlns="http://www.w3.org/2000/svg" p-id="11134" xmlns:xlink="http://www.w3.org/1999/xlink" width="200" height="200"><defs><style type="text/css"></style></defs><path d="M426.666667 512a213.333333 213.333333 0 1 1 0-426.666667 213.333333 213.333333 0 0 1 0 426.666667z m341.333333-298.666667h170.666667v85.333334h-170.666667V213.333333z m0 256h170.666667v85.333334h-170.666667v-85.333334z m42.666667 256h128v85.333334h-128v-85.333334zM123.093333 678.144C203.306667 624.213333 304.853333 597.333333 427.733333 597.333333c122.709333 0 223.445333 26.88 302.08 80.64a85.333333 85.333333 0 0 1 37.205334 70.442667v147.029333a42.666667 42.666667 0 0 1-42.666667 42.666667H128a42.666667 42.666667 0 0 1-42.666667-42.666667v-146.474666a85.333333 85.333333 0 0 1 37.76-70.826667z" p-id="11135"></path></svg>