<?xml version="1.0" standalone="no"?><!DOCTYPE svg PUBLIC "-//W3C//DTD SVG 1.1//EN" "http://www.w3.org/Graphics/SVG/1.1/DTD/svg11.dtd"><svg t="1557902162883" class="icon" style="" viewBox="0 0 1024 1024" version="1.1" xmlns="http://www.w3.org/2000/svg" p-id="19639" xmlns:xlink="http://www.w3.org/1999/xlink" width="200" height="200"><defs><style type="text/css"></style></defs><path d="M943.685 818.93l-45.751-31.365c0-5.88 1.995-11.76 1.995-19.605s0-13.711-1.995-19.606l41.774-33.315c3.976-3.93 3.976-7.829 1.981-11.76l-39.78-68.58c-1.98-1.964-5.955-3.93-11.925-1.964l-49.725 19.605c-9.945-7.831-21.885-13.725-33.825-19.605l-7.951-50.956c1.98-5.865-3.974-9.78-7.965-9.78h-79.575c-3.974 0-9.945 3.915-9.945 7.829l-7.95 52.906c-11.94 3.915-21.885 11.76-33.811 19.605l-47.76-19.605c-5.955-1.965-9.93 0-13.92 3.915l-39.779 68.595c-1.995 1.965 0 7.83 3.99 11.76l41.759 31.351c0 5.895-1.98 11.76-1.98 19.605s0 13.725 1.98 19.605l-41.76 33.33c-3.99 3.915-3.99 7.83-1.995 11.745l39.78 68.595c1.995 1.965 5.955 3.915 11.925 1.965l49.725-19.605c9.945 7.829 21.885 13.709 33.825 19.605l7.951 50.94c0 3.93 3.99 7.83 9.945 7.83h79.575c3.974 0 9.945-3.916 9.945-7.83l7.95-50.94c11.94-5.896 23.865-11.76 33.81-19.605l49.725 19.605c3.99 1.949 9.946 0 11.941-3.93l39.779-68.58c2.025-3.93 2.025-9.794-1.964-11.76zM750.74 836.569c-37.8 0-69.63-31.365-69.63-68.594s31.83-68.581 69.63-68.581 69.63 31.351 69.63 68.581-31.83 68.595-69.63 68.595zM497 767c0-132.555 107.445-239.999 240-239.999 10.185 0 20.16 0.839 30 2.07v-392.07c0-24.856-20.145-45-45-45H122.001c-24.855 0-45 20.145-45 45v750.001c0 24.856 20.145 45 45 45h441.015c-40.816-43.021-66.015-101.01-66.015-165.001zM152 182h540v45H152v-45z m0 195h510v45H152v-45z m0 180h390v45H152v-45z m330 225H152v-45h330v45z" p-id="19640"></path></svg>