<?xml version="1.0" standalone="no"?><!DOCTYPE svg PUBLIC "-//W3C//DTD SVG 1.1//EN" "http://www.w3.org/Graphics/SVG/1.1/DTD/svg11.dtd"><svg t="1557903033841" class="icon" style="" viewBox="0 0 1024 1024" version="1.1" xmlns="http://www.w3.org/2000/svg" p-id="23045" xmlns:xlink="http://www.w3.org/1999/xlink" width="200" height="200"><defs><style type="text/css"></style></defs><path d="M527.947 862.69c-287.485 0-506.157-67.721-508.559-157.433-1.311-47.186 43.327-71.58 93.935-80.39 16.238-198.793 120.003-407.052 297.751-443.606 15.947-6.845 69.978-28.763 115.853-29.929h0.146c48.497 0 95.318 21.991 111.265 30.365C882.06 235.437 932.74 511.27 943.299 627.488c40.268 9.248 86.362 28.836 80.609 79.153 0.073 31.967-84.105 156.048-495.962 156.048zM97.011 705.113c30.583 27.817 163.767 84.759 430.863 84.759 285.3 0 386.153-61.531 415.644-86.944-7.937-2.767-20.607-6.19-40.341-9.393-16.821-2.694-29.855-20.826-30.802-37.938-4.515-77.478-32.841-320.763-210.079-390.813l0.946 217.434v0.073c0 20.025-16.238 36.409-36.263 36.409h-0.146c-20.025 0-36.336-16.238-36.409-36.263l-1.02-243.429c-16.53-7.136-39.54-14.928-58.91-14.928-22.646 0.582-51.264 9.102-71.726 16.603l2.112 239.134v0.364c0 19.952-16.093 36.191-36.117 36.409h-0.291c-19.952 0-36.263-16.093-36.409-36.117l-1.966-215.177c-124.372 54.832-196.244 234.983-201.778 393.653-0.655 18.86-15.655 34.079-34.515 35.025-18.932 1.02-41.215 5.899-52.793 11.141z" fill="" p-id="23046"></path></svg>