<?xml version="1.0" standalone="no"?><!DOCTYPE svg PUBLIC "-//W3C//DTD SVG 1.1//EN" "http://www.w3.org/Graphics/SVG/1.1/DTD/svg11.dtd"><svg t="1557913983175" class="icon" style="" viewBox="0 0 1024 1024" version="1.1" xmlns="http://www.w3.org/2000/svg" p-id="61287" xmlns:xlink="http://www.w3.org/1999/xlink" width="200" height="200"><defs><style type="text/css"></style></defs><path d="M855.23609 332.633117l0 65.222461 65.222461 0L855.23609 332.633117 855.23609 332.633117zM953.070804 450.033341l0 260.891889c0 13.04572-13.04572 26.08837-26.08837 26.08837-13.04572 0-26.08837-13.04572-26.08837-26.08837L900.894064 450.033341 568.255831 450.033341l0 71.745321c0 19.566534-19.566534 39.13409-39.13409 39.13409l-71.745321 0 0 241.325356 0 143.491665 169.580035 0c19.566534 0 39.13409 19.566534 39.13409 39.13409 0 19.566534-19.566534 39.13409-39.13409 39.13409L92.126956 1023.997953c-19.566534 0-39.13409-19.566534-39.13409-39.13409 0-19.566534 19.566534-39.13409 39.13409-39.13409l169.580035 0L261.706991 802.239131 261.706991 450.035388 52.992866 450.035388c-13.04572 0-26.08837-13.04572-26.08837-26.08837L26.904495 273.934539c0-6.52286 0-13.04572 6.52286-19.566534L261.706991 6.52286l0 0c6.52286-6.52286 13.04572-6.52286 19.566534-6.52286 6.52286 0 6.52286 0 13.04572 0l547.872149 247.846169 0 0 0 0 0 0 0 0 0 0 0 0 0 0 0 0 0 0 0 0 0 0 0 0 0 0 0 0 0 0 0 0 0 0 0 0 0 0 0 0 0 0 0 0 0 0 0 0 0 0 0 0 0 0L992.202848 397.858647c6.52286 6.52286 6.52286 26.08837 0 32.61123s-13.04572 6.52286-19.566534 6.52286l-19.566534 0L953.069781 450.033341zM483.46479 300.021886l78.268181 78.268181 0-78.268181L483.46479 300.021886 483.46479 300.021886zM307.361895 632.659096l97.834714 0 0-65.222461-97.834714 0L307.361895 632.659096zM398.675796 332.633117l-58.700624 0 0 150.011455 150.012478 0 0-58.700624L398.675796 332.633117 398.675796 332.633117zM307.361895 945.728749l97.834714 0L405.196609 828.327501l-97.834714 0L307.361895 945.728749zM307.361895 254.364936l84.788994 0-84.788994-136.968805L307.361895 254.364936 307.361895 254.364936zM724.790145 254.364936 346.498032 78.262041l104.357574 176.102895L724.790145 254.364936 724.790145 254.364936zM261.706991 84.786947l-156.534315 169.580035 156.534315 0L261.706991 84.786947 261.706991 84.786947zM607.387874 397.8566l97.834714 0 0-97.834714-97.834714 0L607.387874 397.8566zM750.879539 397.8566l58.700624 0 0-97.834714-58.700624 0L750.879539 397.8566zM189.96167 397.8566l65.222461 0 0-97.834714-65.222461 0L189.96167 397.8566zM72.561446 397.8566l71.745321 0 0-97.834714L72.561446 300.021886 72.561446 397.8566zM307.361895 776.148714l97.834714 0 0-97.834714-97.834714 0L307.361895 776.148714z" p-id="61288"></path></svg>