<?xml version="1.0" standalone="no"?><!DOCTYPE svg PUBLIC "-//W3C//DTD SVG 1.1//EN" "http://www.w3.org/Graphics/SVG/1.1/DTD/svg11.dtd"><svg t="1557903300905" class="icon" style="" viewBox="0 0 1024 1024" version="1.1" xmlns="http://www.w3.org/2000/svg" p-id="24971" xmlns:xlink="http://www.w3.org/1999/xlink" width="200" height="200"><defs><style type="text/css"></style></defs><path d="M291.4 854.2V714.4h95.7v-88.3H78v88.3h95.7v139.7H78v88.4h309.1v-88.4h-95.7z" fill="" p-id="24972"></path><path d="M78 626.1v88.3h95.7v139.7H78v88.4h231.2L161.5 626.1H78z m309.1 0h559.4v88.3H387.1v-88.3z m-81.9 102.1H675v112.2H305.2V728.2z m397.4 0H837v112.2H702.6V728.2z m0 139.8h230v60.7h-230V868z m-301.7 0H675v60.7H400.9V868z" fill="" p-id="24973"></path><path d="M946.5 728.2c7.6 0 13.8-6.2 13.8-13.8v-88.3c0-7.6-6.2-13.8-13.8-13.8h-66.3c-7.6 0-13.8 6.2-13.8 13.8 0 7.6 6.2 13.8 13.8 13.8h52.4v60.7h-230v-60.7h104c7.6 0 13.8-6.2 13.8-13.8 0-7.6-6.2-13.8-13.8-13.8H692.4l-166.4-90v-22.9c62-6.9 110.4-59.6 110.4-123.4 0-52.1-32.8-98.6-80.9-116.4v-23.4l38-25.3c3.9-2.6 6.2-6.9 6.2-11.5V81.5c0-7.6-6.2-13.8-13.8-13.8H438.6c-7.6 0-13.8 6.2-13.8 13.8v117.7c0 4.6 2.3 9 6.2 11.5l38 25.3v96c0 7.6 6.4 14 14 13.8 11.2-0.1 28.1-0.3 29.3-0.3 22.4 0 30.4 16.3 30.4 30.4 0 11.8-6.8 21.9-16.5 27v-12.3c0-7.6-6.2-13.8-13.8-13.8-7.6 0-13.8 6.2-13.8 13.8v12.3c-9.8-5.1-16.5-15.3-16.5-27 0-7.6-6.2-13.8-13.8-13.8h-66.5c-7.6 0-13.8 6.2-13.8 13.8 0 63.8 48.3 116.5 110.4 123.4v22.9L332 612.3H78c-7.6 0-13.8 6.2-13.8 13.8v88.3c0 7.6 6.2 13.8 13.8 13.8h81.8v112.2H78c-7.6 0-13.8 6.2-13.8 13.8v88.3c0 7.6 6.2 13.8 13.8 13.8h66.3c7.6 0 13.8-6.2 13.8-13.8 0-7.6-6.2-13.8-13.8-13.8H91.7V868h81.8c7.6 0 13.8-6.2 13.8-13.8V714.4c0-7.6-6.2-13.8-13.8-13.8H91.7V640h281.5v60.7h-81.8c-7.6 0-13.8 6.2-13.8 13.8v139.8c0 7.6 6.2 13.8 13.8 13.8h81.8v60.7H217.7c-7.6 0-13.8 6.2-13.8 13.8 0 7.6 6.2 13.8 13.8 13.8h728.6c7.6 0 13.8-6.2 13.8-13.8v-88.3c0-7.6-6.2-13.8-13.8-13.8h-81.8V728.2h82zM390.1 612.3l122.1-66.2 122.2 66.2H390.1z" fill="" p-id="24974"></path><path d="M400.9 639.9H675v60.7H400.9v-60.7zM419.5 418.7l2.5-1 2.5 1c-0.4 0.8 0.9 1.4 1.3 0.5 0.1-0.2 0.1-0.4-0.1-0.6 0.2-0.1 0.4-0.2 0.5-0.4 0.3-0.9-1-1.3-1.3-0.5l-1.4-0.5 1.4-0.5c0.3 0.9 1.6 0.4 1.3-0.5-0.1-0.2-0.3-0.4-0.5-0.4 0.1-0.2 0.1-0.4 0.1-0.6-0.3-0.9-1.6-0.3-1.3 0.5l-2.5 1-2.5-1c0.4-0.8-0.9-1.4-1.3-0.5-0.1 0.2-0.1 0.4 0.1 0.6-0.2 0.1-0.4 0.2-0.5 0.4-0.3 0.9 1 1.3 1.3 0.5l1.4 0.5-1.4 0.5c-0.3-0.9-1.6-0.4-1.3 0.5 0.1 0.2 0.3 0.4 0.5 0.4-0.1 0.2-0.1 0.4-0.1 0.6 0.4 0.9 1.7 0.4 1.3-0.5z m0.7-4.7c-0.8 0.4-1.4-0.8-0.7-1.3-0.4-0.4-0.6-1-0.6-1.6 0-3.8 6.2-3.8 6.2 0 0 0.6-0.2 1.1-0.6 1.6 0.7 0.5 0.1 1.7-0.7 1.3 0 0.8 0.1 1.4-0.8 1.8 0-1-0.2-0.9-0.2 0.1-0.1 0-0.1 0-0.2 0.1 0-1.1-0.2-1.1-0.2 0h-0.2c0-1.2-0.2-1.2-0.2 0h-0.2c0-1.1-0.2-1.2-0.2 0-0.1 0-0.1 0-0.2-0.1 0-0.9-0.2-1.1-0.2-0.1-1.1-0.4-1-1-1-1.8z m0.6-1c-1 0-1-1.5 0-1.5s1 1.5 0 1.5z m2.4 0c-1 0-1-1.5 0-1.5s1 1.5 0 1.5z m-1.5 0.6c-0.3 0.4-0.7 0.7-0.1 0.7 0.1 0 0.3-0.3 0.4-0.3 0.1 0 0.2 0.3 0.4 0.3 0.6 0 0.2-0.2-0.1-0.7-0.3-0.4-0.3-0.4-0.6 0z" fill="" p-id="24975"></path></svg>