<?xml version="1.0" standalone="no"?><!DOCTYPE svg PUBLIC "-//W3C//DTD SVG 1.1//EN" "http://www.w3.org/Graphics/SVG/1.1/DTD/svg11.dtd"><svg t="1557914782566" class="icon" style="" viewBox="0 0 1025 1024" version="1.1" xmlns="http://www.w3.org/2000/svg" p-id="25942" xmlns:xlink="http://www.w3.org/1999/xlink" width="200.1953125" height="200"><defs><style type="text/css"></style></defs><path d="M592.519221 731.063405c-28.629056 0-52.657014 26.072891-52.657014 58.791812s23.516725 58.791812 52.657014 58.791812c28.629056 0 52.657014-26.072891 52.657015-58.791812 0-32.207688-23.516725-58.791812-52.657015-58.791812z m59.814279-352.239641c0-32.207688-27.095357-57.769346-60.325512-57.769346s-59.814279 26.072891-59.814279 57.769346c0 3.067399 0 5.623565 0.511234 8.179731l21.471792 265.841238c0 19.938093 16.870694 35.786321 37.831253 35.78632s37.831253-15.848228 37.831253-35.78632l21.983026-265.841238c0.511233-2.556166 0.511233-5.623565 0.511233-8.179731z m361.441837 268.908637l-85.887169-82.81977c-4.601098-4.601098-9.71343-6.646031-15.848228-7.668497h-11.247129c-7.157264-0.511233-14.314528 2.044933-20.449326 7.668497l-85.887169 82.81977c-11.758362 11.247129-13.292062 32.207688-3.067399 45.499751 10.224663 13.292062 28.629056 14.825761 40.898652 3.067399l39.876185-37.831253v296.515227c0 19.42686 13.292062 35.786321 30.162756 35.78632h6.646031c16.359461 0 29.14029-15.848228 29.14029-35.78632v-294.981528l37.831253 35.786321c11.758362 11.247129 30.162756 10.224663 40.898652-3.067399 10.735896-12.780829 9.71343-32.718922-3.067399-44.988518zM746.400399 942.202696H88.954568l505.098353-852.736895 221.875187 373.2002c10.735896 18.404393 33.741388 23.516725 50.100849 11.247129 16.359461-12.269596 20.960559-37.32002 10.224663-55.21318L644.665002 29.14029c-10.735896-18.404393-29.14029-29.14029-50.612081-29.14029-20.449326 0-39.876186 10.735896-50.100849 29.14029L10.224663 928.910634c-10.735896 18.404393-11.247129 40.387419-2.044933 59.814279 10.224663 20.449326 30.673989 33.230155 52.657015 33.230154H746.400399c19.938093 0 36.297554-17.89316 36.297554-39.876185s-16.359461-39.876186-36.297554-39.876186z" p-id="25943"></path></svg>