<?xml version="1.0" standalone="no"?><!DOCTYPE svg PUBLIC "-//W3C//DTD SVG 1.1//EN" "http://www.w3.org/Graphics/SVG/1.1/DTD/svg11.dtd"><svg t="1557907735982" class="icon" style="" viewBox="0 0 1024 1024" version="1.1" xmlns="http://www.w3.org/2000/svg" p-id="57279" xmlns:xlink="http://www.w3.org/1999/xlink" width="200" height="200"><defs><style type="text/css"></style></defs><path d="M716.8 536.064h-412.672c-12.8 0-23.552-10.752-23.552-23.552 0-12.8 10.752-23.552 23.552-23.552H716.8c12.8 0 23.552 10.752 23.552 23.552 0 13.312-10.24 23.552-23.552 23.552zM895.488 728.576c-7.168-16.384-16.384-30.72-28.16-43.008-11.776-12.288-25.6-22.016-41.472-29.184-15.872-7.168-32.768-10.752-51.2-10.752-17.92 0-34.816 3.584-50.688 10.752-15.872 7.168-29.696 16.896-41.472 29.184-11.776 12.288-21.504 26.624-28.16 43.008-7.168 16.384-10.24 33.792-10.24 52.224 0 18.944 3.584 36.352 10.24 52.736 7.168 16.384 16.384 30.72 28.16 43.008 11.776 12.288 25.6 22.016 41.472 29.184 15.872 7.168 32.768 10.752 50.688 10.752 18.432 0 35.328-3.584 51.2-10.752 15.872-7.168 29.696-16.896 41.472-29.184 11.776-12.288 21.504-26.624 28.16-43.008 7.168-16.384 10.24-34.304 10.24-52.736 0-18.432-3.072-35.84-10.24-52.224z m-98.816 42.496v93.696c0 11.264-9.216 20.48-20.48 20.48-5.632 0-10.752-2.048-14.336-6.144-3.584-3.584-6.144-8.704-6.144-14.336v-93.696h-63.488l84.992-83.456 84.992 83.456h-65.536zM519.168 251.392c-4.096-7.168-14.336-7.168-18.432 0l-113.664 197.12c-4.096 7.168 1.024 16.384 9.216 16.384h227.84c8.192 0 13.312-8.704 9.216-15.872L519.168 251.392z m3.584 180.224c0 7.168-6.144 13.312-13.312 13.312-7.168 0-13.312-6.144-13.312-13.312 0-7.168 6.144-13.312 13.312-13.312 7.168 0 13.312 6.144 13.312 13.312z m0-41.984c0 7.168-5.632 12.8-12.8 12.8-6.656-0.512-12.8-6.144-12.8-13.312v-94.208c0-7.168 5.632-12.8 12.8-12.8s12.8 5.632 12.8 12.8V389.632z" fill="" p-id="57280"></path><path d="M814.08 338.432l-187.904-187.904c-4.608-4.608-10.24-6.656-16.384-6.656h-307.2c-56.832 0-103.424 46.08-103.424 103.424v529.408c0 56.832 46.08 103.424 103.424 103.424h311.296c-8.704-23.04-12.8-47.104-12.8-73.216 0-7.168 0.512-13.824 1.024-20.48h-297.984c-12.8 0-23.552-10.752-23.552-23.552 0-12.8 10.752-23.552 23.552-23.552h308.224c1.536-4.096 3.072-8.704 5.12-12.8 7.68-18.432 17.408-34.816 29.184-49.664h-342.016c-12.8 0-23.552-10.752-23.552-23.552 0-12.8 10.752-23.552 23.552-23.552h393.728c8.192-5.12 17.408-10.24 26.624-14.336 24.576-10.752 50.176-16.384 77.824-16.384 6.656 0 12.8 0.512 19.456 1.024v-244.224c-1.024-7.168-4.096-13.312-8.192-17.408z m-151.552 158.208h-305.152c-10.752 0-17.92-11.776-12.288-21.504l152.576-264.192c5.632-9.728 19.456-9.728 25.088 0l152.576 264.192c5.12 9.728-1.536 22.016-12.8 21.504z" fill="" p-id="57281"></path></svg>