<?xml version="1.0" standalone="no"?><!DOCTYPE svg PUBLIC "-//W3C//DTD SVG 1.1//EN" "http://www.w3.org/Graphics/SVG/1.1/DTD/svg11.dtd"><svg t="1557902941844" class="icon" style="" viewBox="0 0 1024 1024" version="1.1" xmlns="http://www.w3.org/2000/svg" p-id="21212" xmlns:xlink="http://www.w3.org/1999/xlink" width="200" height="200"><defs><style type="text/css"></style></defs><path d="M512.1 664.7c-84.3 0-152.9-68.6-152.9-152.9s68.6-152.9 152.9-152.9S665 427.5 665 511.8s-68.6 152.9-152.9 152.9z m324.5-110.1c1.7-14 3.1-28 3.1-42.8 0-14.9-1.3-28.8-3.1-42.8l92.2-72.1c8.3-6.6 10.5-18.3 5.2-28l-87.4-151.1c-5.2-9.6-17-13.1-26.6-9.6l-108.8 43.7c-22.7-17.5-47.2-31.9-73.8-42.8L620.9 93.3C619.5 82.9 610.4 75 599.5 75H424.7c-10.9 0-20.1 7.9-21.4 18.3l-16.6 115.8c-26.6 10.9-51.1 25.8-73.8 42.8l-108.8-43.7c-10-3.9-21.4 0-26.6 9.6L90.1 369c-5.7 9.6-3.1 21.4 5.2 28l92.2 72.1c-1.7 14-3.1 28.4-3.1 42.8 0 14.4 1.3 28.8 3.1 42.8l-92.2 72.1c-8.3 6.6-10.5 18.3-5.2 28l87.4 151.1c5.2 9.6 17 13.1 26.6 9.6l108.8-43.7c22.7 17.5 47.2 31.9 73.8 42.8l16.6 115.8c1.3 10.5 10.5 18.3 21.4 18.3h174.7c10.9 0 20.1-7.9 21.4-18.3l16.6-115.8c26.6-10.9 51.1-25.8 73.8-42.8L820 815.4c10 3.9 21.4 0 26.6-9.6L934 654.6c5.2-9.6 3.1-21.4-5.2-28l-92.2-72z" p-id="21213"></path></svg>