<?xml version="1.0" standalone="no"?><!DOCTYPE svg PUBLIC "-//W3C//DTD SVG 1.1//EN" "http://www.w3.org/Graphics/SVG/1.1/DTD/svg11.dtd"><svg t="1557906244762" class="icon" style="" viewBox="0 0 1024 1024" version="1.1" xmlns="http://www.w3.org/2000/svg" p-id="39442" xmlns:xlink="http://www.w3.org/1999/xlink" width="200" height="200"><defs><style type="text/css"></style></defs><path d="M498.18846114 762.2C305.10384629 762.2 148.53846114 605.63461573 148.53846114 412.55 148.53846114 219.39615371 305.10384629 62.86538427 498.18846114 62.86538427c193.11923057 0 349.68461573 156.56538428 349.68461571 349.68461573a349.68461573 349.68461573 0 0 1-349.68461571 349.61538427z m0-499.5a199.8 199.8 0 1 0 0 399.6 199.8 199.8 0 0 0 0-399.63461572z m0 299.7a99.9 99.9 0 1 1 0-199.8 99.9 99.9 0 0 1 0 199.8z m0 199.8A349.37307685 349.37307685 0 0 1 813.74230742 962H182.66923057a349.37307685 349.37307685 0 0 1 315.51923056-199.8z" p-id="39443"></path></svg>