<?xml version="1.0" standalone="no"?><!DOCTYPE svg PUBLIC "-//W3C//DTD SVG 1.1//EN" "http://www.w3.org/Graphics/SVG/1.1/DTD/svg11.dtd"><svg t="1557914188641" class="icon" style="" viewBox="0 0 1024 1024" version="1.1" xmlns="http://www.w3.org/2000/svg" p-id="24185" xmlns:xlink="http://www.w3.org/1999/xlink" width="200" height="200"><defs><style type="text/css"></style></defs><path d="M484.2 297.8c37.5 0 67.9-30.5 67.9-68 0-37.7-30.5-68.4-67.9-68.4-18.4 0-35.6 7.1-48.4 20.1-12.7 12.9-19.8 30-19.8 48.3 0 18.3 7.1 35.4 19.9 48.2C448.7 290.7 465.9 297.8 484.2 297.8zM484.2 225.4c1.9 0 3.9 1.7 3.9 4.4 0 2.5-2 4-3.9 4-2.5 0-4.2-1.6-4.2-4C480 227.1 481.6 225.4 484.2 225.4z" p-id="24186"></path><path d="M644.2 297.8c37.5 0 67.9-30.5 67.9-68 0-37.7-30.5-68.4-67.9-68.4-18.4 0-35.6 7.1-48.4 20.1-12.7 12.9-19.8 30-19.8 48.3 0 18.3 7.1 35.4 19.9 48.2C608.7 290.7 625.9 297.8 644.2 297.8zM644.2 225.4c1.9 0 3.9 1.7 3.9 4.4 0 2.5-2 4-3.9 4-2.5 0-4.2-1.6-4.2-4C640 227.1 641.6 225.4 644.2 225.4z" p-id="24187"></path><path d="M804.2 297.8c37.5 0 67.9-30.5 67.9-68 0-37.7-30.5-68.4-67.9-68.4-18.4 0-35.6 7.1-48.4 20.1-12.7 12.9-19.8 30-19.8 48.3 0 18.3 7.1 35.4 19.9 48.2C768.7 290.7 785.9 297.8 804.2 297.8zM804.2 225.4c1.9 0 3.9 1.7 3.9 4.4 0 2.5-2 4-3.9 4-2.5 0-4.2-1.6-4.2-4C800 227.1 801.6 225.4 804.2 225.4z" p-id="24188"></path><path d="M928 64 96 64c-17.7 0-32 14.3-32 32l0 832c0 17.7 14.3 32 32 32l832 0c17.7 0 32-14.3 32-32l0-832C960 78.3 945.7 64 928 64zM896 128l0 192L128 320l0-192L896 128zM128 896l0-512 768 0 0 512L128 896z" p-id="24189"></path></svg>