<?xml version="1.0" standalone="no"?><!DOCTYPE svg PUBLIC "-//W3C//DTD SVG 1.1//EN" "http://www.w3.org/Graphics/SVG/1.1/DTD/svg11.dtd"><svg t="1557903946482" class="icon" style="" viewBox="0 0 1024 1024" version="1.1" xmlns="http://www.w3.org/2000/svg" p-id="30370" xmlns:xlink="http://www.w3.org/1999/xlink" width="200" height="200"><defs><style type="text/css"></style></defs><path d="M236.032 945.254h-73.42V605.286c0-192.921 156.364-349.388 349.388-349.388s349.389 156.467 349.389 349.388v339.968h-80.691M537.293 396.698L364.953 680.55h137.831l-34.509 212.89 172.34-283.853H502.783l34.509-212.89zM801.587 84.89c16.18 9.42 21.709 30.208 12.39 46.387l-61.951 107.725-58.573-33.895 61.952-107.725c9.216-16.179 29.9-21.708 45.977-12.492h0.205zM511.897 5.12c20.276 0 36.66 15.258 36.66 34.202v122.06h-73.319V39.22c0-18.841 16.384-34.099 36.66-34.099zM222.414 84.89c16.077-9.319 36.761-3.79 46.08 12.288 0 0 0 0.102 0.102 0.102l61.952 107.725-58.573 33.894-61.952-107.725c-9.318-16.179-3.788-36.864 12.39-46.284zM10.445 297.78c9.216-16.18 29.9-21.812 46.08-12.494 0 0 0.102 0 0.102 0.103l107.315 62.259-33.792 58.778-107.315-62.362c-16.179-9.318-21.709-30.106-12.39-46.285z m1003.11 0c9.319 16.178 3.789 36.966-12.39 46.386L893.85 406.323l-33.792-58.777 107.315-62.26c16.077-9.318 36.761-3.788 46.08 12.288 0 0.103 0.102 0.103 0.102 0.205zM42.905 945.253h938.292c20.275 0 36.761 16.487 36.761 36.762 0 20.275-16.486 36.762-36.761 36.762H42.906c-20.276 0-36.762-16.487-36.762-36.762-0.102-20.275 16.384-36.762 36.762-36.762z" p-id="30371"></path></svg>