<?xml version="1.0" standalone="no"?><!DOCTYPE svg PUBLIC "-//W3C//DTD SVG 1.1//EN" "http://www.w3.org/Graphics/SVG/1.1/DTD/svg11.dtd"><svg t="1557901950734" class="icon" style="" viewBox="0 0 1024 1024" version="1.1" xmlns="http://www.w3.org/2000/svg" p-id="18683" xmlns:xlink="http://www.w3.org/1999/xlink" width="200" height="200"><defs><style type="text/css"></style></defs><path d="M284.571429 827.085714c-6.4 0-12.457143-2.514286-16.914286-7.085714l-43.885714-43.885714c-9.371429-9.371429-9.371429-24.571429 0-33.942857l88.914285-88.914286c9.371429-9.371429 24.571429-9.371429 33.942857 0l43.885715 43.885714c9.371429 9.371429 9.371429 24.571429 0 33.942857l-88.914286 88.914286c-4.571429 4.571429-10.628571 7.085714-17.028571 7.085714z m-13.142858-67.771428l13.142858 13.142857 58.285714-58.285714-13.142857-13.142858-58.285715 58.285715z m86.742858-29.828572z" p-id="18684"></path><path d="M340.782857 670.782857l221.988572-221.988571 32.324571 32.324571-221.988571 221.988572z" p-id="18685"></path><path d="M633.942857 517.485714c-6.285714 0-12.342857-2.514286-16.8-6.971428l-83.885714-83.885715c-9.257143-9.257143-9.257143-24.228571 0-33.485714l174.285714-174.285714c14.971429-14.971429 34.857143-23.2 56.114286-23.2 21.142857 0 41.142857 8.228571 56.114286 23.2l5.257142 5.257143c14.971429 14.971429 23.2 34.857143 23.2 56.114285 0 21.142857-8.228571 41.142857-23.2 56.114286L650.742857 510.514286c-4.457143 4.457143-10.4 6.971429-16.8 6.971428 0.114286 0 0 0 0 0z m-15.428571-39.314285c-0.114286 0-0.114286 0 0 0z m-37.257143-68.228572l52.8 52.8L792.685714 304c6.4-6.4 9.828571-14.742857 9.828572-23.771429s-3.542857-17.371429-9.828572-23.771428l-5.257143-5.257143c-6.4-6.4-14.742857-9.828571-23.771428-9.828571s-17.371429 3.542857-23.771429 9.828571L581.257143 409.942857zM714.628571 827.2c-17.371429 0-34.742857-6.628571-48-19.885714L484.114286 624.8l32.342857-32.342857 182.628571 182.628571c8.685714 8.685714 22.742857 8.685714 31.428572 0 8.685714-8.685714 8.685714-22.742857 0-31.428571l-0.114286-0.114286-181.714286-183.657143 32.457143-32.114285 181.6 183.657142c26.4 26.514286 26.4 69.485714-0.114286 96-13.142857 13.142857-30.628571 19.771429-48 19.771429zM419.771429 433.028571l62.171428 62.171429L514.285714 462.857143l-71.885714-71.885714c4.571429-13.828571 6.857143-28.571429 6.857143-43.542858-0.114286-36.342857-14.4-70.4-40.114286-96.114285-21.371429-21.371429-48.457143-34.742857-78.4-38.857143-28.914286-3.885714-58.857143 1.714286-84.228571 15.657143-6.514286 3.542857-10.971429 10.171429-12.114286 17.485714-1.028571 7.314286 1.485714 14.857143 6.742857 20.114286l48 48-19.2 19.2-45.028571-44.914286c-5.6-5.6-13.6-8.114286-21.485715-6.514286-7.771429 1.6-14.285714 6.857143-17.371428 14.171429-10.4 25.028571-13.028571 52.228571-7.885714 78.857143 5.371429 27.314286 18.857143 52.114286 38.857142 71.542857 26.514286 25.714286 60.914286 38.628571 95.314286 38.628571 9.6 0 19.2-1.028571 28.571429-2.971428l78.171428 78.171428 32.342857-32.342857-64.685714-64.685714c8.228571-5.371429 16.114286-11.657143 23.314286-18.971429 3.542857-3.428571 6.742857-7.085714 9.714286-10.857143z m-170.742858-19.542857c-17.828571-17.371429-27.428571-40.571429-27.657142-64.342857l31.885714 31.885714c9.257143 9.257143 24.342857 9.257143 33.6 0l50.171428-50.171428c4.457143-4.457143 6.971429-10.514286 6.971429-16.8 0-6.4-2.514286-12.342857-6.971429-16.8l-38.857142-38.857143c28.228571-4.342857 57.714286 4.571429 78.628571 25.485714 35.2 35.2 35.428571 92.685714 0.685714 128.114286-34.971429 35.542857-92.571429 36.228571-128.457143 1.485714z" p-id="18686"></path><path d="M1024 1022.857143H0V24C0 10.742857 10.742857 0 24 0h976c13.257143 0 24 10.742857 24 24v49.142857h-45.714286V45.714286H45.714286v931.428571h932.571428V146.057143h45.714286V1022.857143z" p-id="18687"></path></svg>