<?xml version="1.0" standalone="no"?><!DOCTYPE svg PUBLIC "-//W3C//DTD SVG 1.1//EN" "http://www.w3.org/Graphics/SVG/1.1/DTD/svg11.dtd"><svg t="1557910770373" class="icon" style="" viewBox="0 0 1024 1024" version="1.1" xmlns="http://www.w3.org/2000/svg" p-id="4674" xmlns:xlink="http://www.w3.org/1999/xlink" width="200" height="200"><defs><style type="text/css"></style></defs><path d="M847.6 582.5l54.1-54.1-31.8-31.8-54.1 54.1c-23.9-18.5-52.8-30.9-84.3-34.9v-76.4h-45v76.4c-31.5 4-60.4 16.5-84.3 34.9l-54.1-54.1-31.8 31.8 54.1 54.1c-18.5 23.9-30.9 52.8-34.9 84.3H459v45h76.4c4 31.5 16.5 60.4 34.9 84.3l-54.1 54.1L548 882l54.1-54.1c23.9 18.5 52.8 30.9 84.3 34.9v76.4h45v-76.4c31.5-4 60.4-16.5 84.3-34.9l54.1 54.1 31.8-31.8-54.1-54.1c18.5-23.9 30.9-52.8 34.9-84.3H959v-45h-76.4c-4.1-31.5-16.5-60.3-35-84.3z m-9.7 123.6c-2.9 22.7-11.9 44.3-25.9 62.5L801.7 782l-13.4 10.3c-18.2 14.1-39.8 23-62.5 25.9l-16.8 2.2-16.8-2.2c-22.7-2.9-44.3-11.9-62.5-25.9L616.3 782 606 768.6c-14.1-18.2-23-39.8-25.9-62.5l-2.2-16.8 2.2-16.8C583 649.9 592 628.2 606 610l10.3-13.4 13.4-10.3c18.2-14.1 39.8-23 62.5-25.9l16.8-2.2 16.8 2.2c22.7 2.9 44.3 11.9 62.5 25.9l13.4 10.3L812 610c14.1 18.2 23 39.8 25.9 62.5l2.2 16.8-2.2 16.8zM344.4 412.4L227.3 552l117.1 139.6-34.5 28.9L168.5 552 310 383.5l34.4 28.9zM960 87v370.6h-45V132H109v760h318.1v45H64V87h896zM728.1 225.9h-45v-45h45v45z m110 0h-45v-45h45v45z" fill="" p-id="4675"></path></svg>